<svg xmlns="http://www.w3.org/2000/svg" version="1.1" xmlns:xlink="http://www.w3.org/1999/xlink" xmlns:svgjs="http://svgjs.dev/svgjs" viewBox="0 0 1422 800"><defs><linearGradient x1="50%" y1="0%" x2="50%" y2="100%" id="ccchaos-grad"><stop stop-color="hsl(189, 94%, 43%)" stop-opacity="1" offset="0%"></stop><stop stop-color="hsl(271, 81%, 56%)" stop-opacity="1" offset="100%"></stop></linearGradient></defs><g stroke-width="4.5" stroke="url(#ccchaos-grad)" fill="none" stroke-linecap="round"><path d="M761.43 -474.75C769.75 -474.43 778.06 -473.8 786.34 -472.86 794.62 -471.74 802.88 -470.34 811.11 -468.69 819.34 -466.89 827.55 -464.88 835.72 -462.68 843.89 -460.4 852.02 -457.98 860.11 -455.44 868.2 -452.89 876.23 -450.28 884.22 -447.62 892.19 -445.03 900.1 -442.44 907.94 -439.87 915.75 -437.42 923.49 -435.03 931.15 -432.7 938.76 -430.54 946.28 -428.47 953.69 -426.49 961.05 -424.7 968.29 -423 975.4 -421.41 982.44 -420 989.33 -418.67 996.06 -417.43 1002.71 -416.34 1009.18 -415.32 1015.46 -414.34 1024.63 -413.06 1041.7 -410.62 1049.55 -409.37 1056.95 -408.07 1070.16 -404.94 1075.94 -403.02 1085.57 -398.15 1096.41 -388.62 1098.79 -384.62 1101.9 -375.35 1103.94 -359.32 1103.93 -353.34 1103.84 -347.14 1103.52 -334.16 1103.48 -327.44 1103.85 -320.65 1105.83 -306.87 1107.7 -299.92 1110.55 -293.02 1119.08 -279.24 1125 -272.38 1129.74 -267.86 1135.09 -263.35 1141.06 -258.83 1147.71 -254.36 1155.04 -249.9 1163.06 -245.42 1171.78 -240.99 1181.2 -236.54 1191.34 -232.08 1202.15 -227.65 1213.65 -223.19 1225.81 -218.71 1238.57 -214.24 1251.94 -209.73 1265.87 -205.17 1280.26 -200.61 1295.11 -196 1310.36 -191.33 1325.86 -186.65 1341.62 -181.9 1357.53 -177.07 1373.47 -172.23 1389.39 -167.3 1405.19 -162.29 1420.73 -157.24 1435.95 -152.11 1450.74 -146.89 1464.96 -141.63 1478.55 -136.28 1491.39 -130.84 1503.38 -125.35 1514.43 -119.77 1524.45 -114.11 1533.37 -108.4 1541.09 -102.6 1547.54 -96.72 1552.72 -90.79 1556.53 -84.79 1558.93 -78.7 1559.99 -72.58 1559.62 -66.38 1557.81 -60.12 1554.72 -53.82 1550.26 -47.46 1544.48 -41.04 1537.61 -34.6 1529.59 -28.1 1520.5 -21.54 1510.64 -14.98 1499.97 -8.37 1488.64 -1.71 1476.96 4.94 1464.94 11.63 1452.73 18.37 1440.7 25.1 1428.85 31.86 1417.37 38.65 1406.6 45.43 1396.56 52.23 1387.43 59.06 1379.51 65.87 1372.82 72.7 1367.5 79.55 1363.8 86.38 1361.72 93.23 1361.34 100.1 1362.83 106.94 1366.13 113.79 1371.28 120.66 1378.33 127.51 1387.19 134.37 1397.81 141.25 1410.13 148.1 1424.01 154.97 1439.33 161.86 1455.93 168.72 1473.61 175.59 1492.2 182.49 1511.44 189.36 1531.13 196.26 1551 203.17 1570.81 210.06 1590.3 216.98 1609.2 223.92 1627.26 230.84 1644.23 237.79 1659.86 244.77 1673.96 251.72 1686.28 258.72 1696.65 265.74 1704.96 272.75 1711.02 279.79 1714.73 286.88 1716.12 293.94 1715.07 301.05 1711.57 308.2 1705.8 315.34 1697.71 322.53 1687.42 329.76 1675.23 336.98 1661.18 344.25 1645.48 351.57 1628.53 358.88 1610.46 366.25 1591.54 373.67 1572.25 381.09 1552.73 388.57 1533.31 396.1 1514.47 403.63 1496.36 411.22 1479.29 418.87 1463.7 426.52 1449.78 434.19 1437.76 441.88 1427.85 449.57 1420.15 457.28 1414.77 465.01 1411.83 472.74 1411.29 480.49 1413.12 488.26 1417.37 496.04 1423.83 503.83 1432.38 511.64 1442.97 519.46 1455.29 527.29 1469.1 535.15 1484.32 543 1500.55 550.87 1517.49 558.75 1535.03 566.64 1552.73 574.53 1570.3 582.44 1587.62 590.34 1604.25 598.25 1619.94 606.16 1634.61 614.06 1647.87 621.96 1659.53 629.85 1669.56 637.73 1677.67 645.6 1683.75 653.44 1687.84 661.27 1689.75 669.07 1689.47 676.84 1687.09 684.58 1682.57 692.28 1675.97 699.93 1667.43 707.54 1657.02 715.08 1644.89 722.56 1631.21 729.99 1616.13 737.34 1599.84 744.6 1582.56 751.79 1564.48 758.88 1545.82 765.85 1526.78 772.75 1507.59 779.51 1488.46 786.14 1469.58 792.68 1451.15 799.06 1433.37 805.28 1416.38 811.39 1400.36 817.32 1385.44 823.07 1371.73 828.69 1359.35 834.12 1348.38 839.34 1338.88 844.43 1330.89 849.3 1324.43 853.94 1316.07 866.54 1322.77 882.59 1330.6 886.96 1337.11 889.68 1344.33 892.18 1352.12 894.47 1360.52 896.66 1369.23 898.67 1378.1 900.5 1387.2 902.27 1396.2 903.89 1404.98 905.37 1413.61 906.85 1421.8 908.22 1429.43 909.52 1439.82 911.52 1455.57 915.6 1460.57 917.84 1462.62 923.56 1451.59 935.06 1443.22 940.16 1436.45 944.04 1428.81 948.25 1420.34 952.8 1411.12 957.78 1401.19 963.13 1390.61 968.86 1379.43 975.03 1367.73 981.59 1355.58 988.55 1343 995.93 1330.09 1003.69 1316.91 1011.83 1303.48 1020.34 1289.91 1029.19 1276.26 1038.36 1262.51 1047.83 1248.78 1057.55 1235.12 1067.49 1221.51 1077.63 1208.06 1087.9 1194.81 1098.27 1181.71 1108.69 1168.88 1119.11 1156.34 1129.47 1144.05 1139.72 1132.09 1149.81 1120.48 1159.66 1109.17 1169.25 1098.23 1178.5 1087.67 1187.34 1077.45 1195.76 1067.6 1203.67 1058.14 1211.01 1049.02 1217.8 1040.26 1223.93 1031.87 1229.36 1023.8 1234.13 1016.08 1238.15 1008.67 1241.38 1001.57 1243.9 994.76 1245.62 988.22 1246.53 981.95 1246.73 975.93 1246.14 970.12 1244.79 964.54 1242.81 959.14 1240.14 953.91 1236.8 948.87 1232.98 943.95 1228.62 939.13 1223.77 934.47 1218.64 929.88 1213.18 925.34 1207.47 920.92 1201.73 916.52 1195.9 912.12 1190.09 907.81 1184.5 903.48 1179.11 899.11 1174 892.61 1167.3 879.35 1157.52 872.52 1154.87 865.62 1154.31 851.26 1158.8 843.78 1163.93 838.75 1168.57 833.58 1174.04 828.28 1180.29 822.96 1187.34 817.51 1195.06 811.93 1203.38 806.32 1212.26 800.58 1221.57 794.7 1231.2 788.81 1241.1 782.78 1251.09 776.62 1261.07 770.44 1270.97 764.13 1280.62 757.7 1289.89 751.25 1298.72 744.68 1306.96 737.99 1314.47 731.28 1321.25 724.46 1327.12 717.54 1332 710.6 1335.91 703.56 1338.7 696.42 1340.33 689.27 1340.86 682.07 1340.19 674.83 1338.35 667.59 1335.44 660.31 1331.43 652.99 1326.38 645.68 1320.42 638.34 1313.57 630.98 1305.91 623.64 1297.62 616.28 1288.73 608.91 1279.35 601.56 1269.66 594.21 1259.72 586.86 1249.64 579.53 1239.6 572.22 1229.66 564.91 1219.92 557.64 1210.56 550.39 1201.6 543.17 1193.15 535.98 1185.35 528.83 1178.2 521.71 1171.78 514.63 1166.18 507.6 1161.41 500.61 1157.47 493.68 1154.47 486.79 1152.32 479.96 1151.04 473.19 1150.67 466.47 1151.11 459.82 1152.33 453.22 1154.36 446.69 1157.06 440.23 1160.37 433.83 1164.31 427.49 1168.71 421.24 1173.48 415.03 1178.66 408.9 1184.05 402.84 1189.55 396.83 1195.2 390.89 1200.79 385.02 1206.23 379.2 1211.57 373.44 1216.6 367.74 1221.24 362.08 1225.55 356.47 1229.35 350.92 1232.56 342.63 1236.27 326.26 1239.23 318.15 1238.32 312.73 1236.76 307.31 1234.41 301.91 1231.28 296.45 1227.47 290.99 1222.9 285.52 1217.62 279.98 1211.72 274.41 1205.15 268.81 1197.99 263.13 1190.3 257.4 1182.09 251.61 1173.41 245.74 1164.36 239.8 1154.94 233.81 1145.22 227.71 1135.27 221.54 1125.12 215.31 1114.84 208.98 1104.49 202.59 1094.1 196.14 1083.73 189.6 1073.43 183.02 1063.24 176.39 1053.21 169.7 1043.37 162.98 1033.76 156.26 1024.4 149.5 1015.34 142.76 1006.59 136.06 998.18 129.36 990.12 122.73 982.43 116.19 975.1 109.7 968.17 103.34 961.62 97.13 955.45 91.03 949.68 85.12 944.28 79.41 939.24 73.87 934.58 68.57 930.25 63.53 926.23 56.44 920.87 44.12 911.86 38.94 908.08 23.69 893.58 18.9 883.81 18.31 880.82 16.38 873.9 10.8 861.33 7.57 856.29 3.33 850.86 -7.87 838.73 -14.9 832.03 -20.21 827.37 -25.94 822.5 -32.07 817.42 -38.61 812.23 -45.5 806.85 -52.69 801.28 -60.17 795.6 -67.86 789.74 -75.69 783.72 -83.65 777.6 -91.63 771.32 -99.56 764.9 -107.4 758.39 -115.06 751.75 -122.43 744.99 -129.52 738.15 -136.19 731.2 -142.37 724.15 -148.06 717.04 -153.14 709.84 -157.54 702.56 -161.32 695.23 -164.34 687.82 -166.58 680.36 -168.1 672.86 -168.82 665.3 -168.72 657.7 -167.94 650.07 -166.37 642.4 -164.07 634.7 -161.19 626.98 -157.67 619.24 -153.59 611.47 -149.12 603.69 -144.24 595.9 -139.05 588.09 -133.74 580.28 -128.3 572.46 -122.85 564.64 -117.58 556.82 -112.49 548.99 -107.68 541.17 -103.36 533.35 -99.5 525.53 -96.18 517.72 -93.58 509.91 -91.66 502.11 -90.47 494.32 -90.13 486.53 -90.59 478.75 -91.84 470.98 -93.96 463.21 -96.85 455.45 -100.48 447.7 -104.86 439.96 -109.87 432.22 -115.41 424.5 -121.48 416.78 -127.86 409.11 -134.44 401.49 -141.23 393.87 -147.98 386.3 -154.59 378.79 -161.06 371.27 -167.17 363.8 -172.8 356.38 -177.98 348.95 -182.5 341.56 -186.3 334.22 -189.41 326.87 -191.67 319.57 -193.05 312.3 -193.62 305.02 -193.26 297.78 -191.99 290.58 -189.89 283.36 -186.92 276.18 -183.11 269.03 -178.59 261.86 -173.34 254.73 -167.43 247.62 -161.01 240.5 -154.09 233.4 -146.75 226.32 -139.16 219.23 -131.34 212.16 -123.39 205.11 -115.45 198.04 -107.55 191 -99.79 183.97 -92.28 176.92 -85.06 169.88 -78.2 162.87 -71.79 155.83 -65.84 148.81 -60.39 141.81 -55.53 134.79 -51.22 127.78 -47.48 120.79 -44.37 113.78 -41.82 106.79 -39.83 99.82 -38.42 92.83 -37.52 85.86 -37.07 78.92 -37.11 71.96 -37.52 65.02 -38.24 58.11 -39.3 51.19 -40.56 44.31 -41.96 37.45 -43.52 30.59 -45.1 23.77 -46.63 16.99 -48.15 10.21 -49.52 3.47 -50.66 -3.21 -51.65 -9.88 -52.33 -16.5 -52.66 -23.07 -52.71 -29.62 -52.35 -36.11 -51.55 -42.53 -50.4 -48.92 -48.77 -55.24 -46.67 -61.5 -44.18 -67.71 -41.22 -73.85 -37.79 -79.91 -33.98 -85.93 -29.73 -91.86 -25.06 -97.71 -20.07 -103.52 -14.7 -109.24 -8.99 -114.86 -3.03 -120.45 3.2 -125.94 9.69 -131.35 16.34 -136.71 23.18 -141.99 30.17 -147.18 37.22 -152.33 44.37 -157.4 51.57 -162.39 58.75 -167.35 65.94 -172.23 73.1 -177.05 80.18 -181.85 87.2 -186.58 94.12 -191.26 100.92 -195.94 107.6 -200.56 114.16 -205.14 120.56 -209.73 126.82 -214.28 132.95 -218.81 138.9 -223.36 144.71 -227.88 150.39 -232.39 155.9 -236.94 161.29 -241.48 166.57 -246.01 171.7 -250.58 176.73 -255.16 181.69 -259.72 186.53 -264.35 191.31 -268.97 196.05 -273.58 200.71 -278.25 205.35 -282.91 209.99 -287.55 214.59 -292.25 219.21 -296.92 223.86 -301.56 228.52 -306.23 233.22 -310.86 238 -315.45 242.8 -320.04 247.69 -324.56 252.68 -329.01 257.71 -333.45 262.85 -337.78 268.11 -342.02 273.44 -346.2 278.89 -350.26 284.46 -354.19 290.11 -358.04 295.89 -361.74 301.8 -365.28 307.79 -368.72 313.92 -371.99 320.16 -375.07 326.49 -378.05 332.94 -380.84 339.51 -383.44 346.16 -385.93 352.92 -388.22 359.78 -390.33 366.71 -392.34 373.75 -394.17 380.87 -395.83 388.06 -397.41 395.32 -398.85 402.67 -400.14 410.06 -401.39 417.53 -402.52 425.06 -403.56 432.62 -404.6 440.25 -405.57 447.92 -406.5 455.62 -407.47 463.36 -408.43 471.15 -409.39 478.95 -410.45 486.78 -411.54 494.65 -412.67 502.52 -413.95 510.42 -415.3 518.35 -416.72 526.28 -418.32 534.23 -420.01 542.2 -421.79 550.17 -423.75 558.15 -425.82 566.16 -427.97 574.15 -430.29 582.17 -432.69 590.2 -435.16 598.22 -437.76 606.26 -440.4 614.32 -443.06 622.37 -445.8 630.44 -448.53 638.53 -451.21 646.61 -453.91 654.71 -456.52 662.83 -459.02 670.95 -461.46 679.09 -463.74 687.26 -465.84 695.42 -467.81 703.6 -469.55 711.82 -471.04 720.03 -472.36 728.27 -473.39 736.53 -474.12 744.8 -474.65 753.09 -474.86 761.42 -474.75" stroke-dasharray="0 0" transform="rotate(0, 711, 400)" opacity="0.68"></path><path d="M745.47 -421.37C753.03 -421.12 760.51 -420.63 767.9 -419.9 775.3 -419.02 782.6 -417.93 789.81 -416.62 797.02 -415.21 804.12 -413.62 811.12 -411.86 818.11 -410.03 824.99 -408.08 831.76 -406.01 838.51 -403.93 845.13 -401.76 851.64 -399.54 858.11 -397.34 864.45 -395.12 870.65 -392.88 876.82 -390.72 882.85 -388.57 888.72 -386.44 897.38 -383.42 913.82 -377.81 921.56 -375.22 929.04 -372.89 942.97 -368.64 949.4 -366.7 961.12 -363.22 976.48 -358.08 980.84 -356.25 993.5 -348.52 1003.99 -338.65 1006.58 -335.13 1011.9 -327.11 1020.64 -313.35 1024.07 -308.2 1028.02 -302.85 1037.38 -291.55 1042.95 -285.64 1047.13 -281.66 1051.64 -277.6 1056.52 -273.48 1061.82 -269.36 1067.53 -265.19 1073.67 -260.97 1080.27 -256.77 1087.33 -252.53 1094.88 -248.26 1102.9 -244.02 1111.42 -239.75 1120.44 -235.47 1129.94 -231.22 1139.94 -226.95 1150.43 -222.67 1161.37 -218.43 1172.77 -214.17 1184.62 -209.9 1196.84 -205.67 1209.46 -201.41 1222.44 -197.14 1235.68 -192.91 1249.2 -188.65 1262.96 -184.36 1276.84 -180.1 1290.85 -175.8 1304.92 -171.47 1318.94 -167.16 1332.9 -162.8 1346.72 -158.4 1360.29 -154 1373.59 -149.54 1386.53 -145.04 1399.02 -140.52 1411 -135.94 1422.39 -131.29 1433.13 -126.63 1443.14 -121.9 1452.36 -117.09 1460.73 -112.25 1468.19 -107.34 1474.67 -102.35 1480.18 -97.33 1484.62 -92.22 1487.96 -87.04 1490.82 -79.16 1489.26 -62.92 1484.87 -54.57 1480.64 -48.94 1475.37 -43.23 1469.12 -37.43 1462.12 -31.61 1454.3 -25.7 1445.73 -19.72 1436.69 -13.71 1427.11 -7.63 1417.12 -1.49 1407 4.68 1396.71 10.92 1386.4 17.22 1376.35 23.54 1366.55 29.92 1357.13 36.35 1348.39 42.8 1340.31 49.29 1333.03 55.84 1326.8 62.39 1321.6 68.99 1317.55 75.63 1314.86 82.27 1313.49 88.95 1313.53 95.66 1315.11 102.38 1318.18 109.12 1322.78 115.9 1328.95 122.67 1336.62 129.47 1345.78 136.29 1356.38 143.11 1368.32 149.94 1381.52 156.8 1395.87 163.66 1411.23 170.53 1427.47 177.42 1444.4 184.31 1461.88 191.21 1479.71 198.13 1497.69 205.04 1515.63 211.96 1533.33 218.91 1550.57 225.84 1567.17 232.8 1582.9 239.77 1597.59 246.73 1611.06 253.71 1623.1 260.7 1633.62 267.69 1642.44 274.7 1649.42 281.73 1654.55 288.75 1657.67 295.79 1658.73 302.85 1657.81 309.91 1654.83 316.99 1649.8 324.09 1642.91 331.19 1634.13 338.31 1623.56 345.46 1611.5 352.61 1597.96 359.78 1583.13 366.97 1567.37 374.17 1550.75 381.39 1533.5 388.64 1516.03 395.89 1498.43 403.17 1480.98 410.48 1464.05 417.79 1447.77 425.13 1432.39 432.5 1418.26 439.86 1405.53 447.22 1394.39 454.56 1385.02 461.89 1377.5 469.22 1371.92 476.53 1368.39 483.83 1366.9 491.12 1367.42 498.39 1370.01 505.66 1374.54 512.91 1380.89 520.13 1389.08 527.35 1398.84 534.55 1410.02 541.71 1422.57 548.87 1436.17 556 1450.59 563.1 1465.78 570.18 1481.35 577.22 1497.09 584.23 1512.92 591.21 1528.46 598.15 1543.49 605.04 1557.96 611.91 1571.52 618.72 1583.99 625.46 1595.34 632.18 1605.28 638.83 1613.68 645.4 1620.57 651.94 1625.73 658.4 1629.11 664.77 1630.76 671.1 1630.56 677.34 1628.52 683.47 1624.76 689.55 1619.23 695.52 1612 701.38 1603.23 707.18 1592.94 712.85 1581.28 718.4 1568.38 723.88 1554.38 729.22 1539.42 734.42 1523.67 739.55 1507.28 744.53 1490.42 749.36 1473.25 754.11 1455.95 758.7 1438.68 763.13 1421.56 767.48 1404.79 771.67 1388.5 775.68 1372.8 779.63 1357.83 783.4 1343.7 787.01 1330.51 790.55 1318.34 793.92 1307.26 797.13 1297.34 800.28 1288.61 803.28 1281.1 806.13 1265.53 819.43 1272.98 831.37 1280.2 834.6 1285.91 836.83 1292.07 839.07 1298.57 841.32 1305.48 843.71 1312.54 846.16 1319.64 848.68 1326.88 851.37 1333.97 854.18 1340.85 857.12 1347.59 860.28 1353.96 863.6 1359.86 867.11 1365.42 870.87 1370.39 874.86 1374.74 879.07 1380.12 885.96 1386.22 901.53 1386.81 910.27 1386.25 916.52 1384.86 923.06 1382.68 929.9 1379.8 937.06 1376.13 944.5 1371.71 952.22 1366.63 960.23 1360.84 968.49 1354.37 976.99 1347.32 985.72 1339.66 994.65 1331.44 1003.76 1322.72 1013.03 1313.51 1022.41 1303.88 1031.88 1293.84 1041.41 1283.46 1050.96 1272.78 1060.49 1261.8 1069.97 1250.61 1079.35 1239.24 1088.58 1227.69 1097.65 1216.03 1106.49 1204.31 1115.05 1192.51 1123.32 1180.71 1131.24 1168.95 1138.76 1157.19 1145.87 1145.51 1152.51 1133.95 1158.63 1122.46 1164.26 1111.12 1169.31 1099.96 1173.76 1088.92 1177.65 1078.08 1180.89 1067.45 1183.47 1056.98 1185.47 1046.74 1186.79 1036.73 1187.45 1026.91 1187.54 1017.32 1186.97 1007.98 1185.78 998.82 1184.08 989.9 1181.8 981.22 1178.98 972.73 1175.76 964.45 1172.1 956.4 1168.02 948.53 1163.71 940.85 1159.11 933.38 1154.28 926.06 1149.4 918.92 1144.43 911.95 1139.43 905.12 1134.58 898.44 1129.86 891.89 1125.32 885.46 1121.14 879.16 1117.29 872.95 1113.83 866.85 1110.91 860.83 1108.51 854.89 1106.66 846.13 1105.26 828.95 1106.99 820.48 1110.25 814.89 1113.47 809.31 1117.41 803.73 1122.06 798.18 1127.45 792.62 1133.48 787.05 1140.12 781.49 1147.36 775.91 1155.09 770.31 1163.25 764.71 1171.79 759.08 1180.61 753.41 1189.61 747.74 1198.75 742.03 1207.89 736.27 1216.93 730.51 1225.83 724.7 1234.44 718.84 1242.66 712.97 1250.47 707.06 1257.71 701.09 1264.3 695.12 1270.23 689.09 1275.36 683.01 1279.62 676.94 1283.04 670.81 1285.49 664.62 1286.94 658.44 1287.45 652.25 1286.93 646.05 1285.4 639.86 1282.95 633.65 1279.54 627.45 1275.21 621.25 1270.1 615.06 1264.18 608.86 1257.54 602.68 1250.31 596.51 1242.5 590.35 1234.22 584.2 1225.6 578.07 1216.68 571.95 1207.56 565.86 1198.38 559.78 1189.19 553.74 1180.07 547.71 1171.17 541.72 1162.52 535.75 1154.2 529.81 1146.34 523.9 1138.95 518.04 1132.09 512.19 1125.86 506.39 1120.27 500.63 1115.34 494.9 1111.16 489.21 1107.7 483.56 1104.95 475.15 1102.37 458.6 1101.84 450.45 1103.73 445.05 1105.84 439.69 1108.46 434.38 1111.54 429.07 1115.12 423.81 1119.03 418.58 1123.22 413.35 1127.71 408.16 1132.34 402.99 1137.03 397.82 1141.84 392.66 1146.57 387.54 1151.16 382.38 1155.67 377.24 1159.91 372.12 1163.83 364.37 1169.1 348.81 1176.72 340.97 1178.83 333.02 1179.59 316.9 1177.08 308.71 1173.78 303.17 1170.8 297.58 1167.18 291.97 1162.94 286.27 1158.17 280.53 1152.82 274.76 1146.93 268.91 1140.57 263.03 1133.72 257.12 1126.43 251.15 1118.76 245.15 1110.72 239.13 1102.35 233.07 1093.71 227 1084.82 220.94 1075.73 214.84 1066.48 208.77 1057.11 202.74 1047.65 196.7 1038.15 190.72 1028.64 184.81 1019.16 178.92 1009.74 173.14 1000.41 167.46 991.2 161.84 982.14 156.36 973.25 151.03 964.55 145.79 956.07 140.73 947.82 135.85 939.82 131.11 932.08 126.56 924.61 122.24 917.41 118.07 910.51 114.12 903.89 110.41 897.54 106.87 891.5 103.57 885.73 100.5 880.23 96.26 872.55 89.13 858.82 86.17 852.69 81.31 842.1 75.13 828.29 73.16 824.2 68.45 816.57 59.14 805.3 54.98 801.43 50.08 797.51 38.3 789.16 31.4 784.68 26.35 781.62 21.01 778.43 15.4 775.09 9.49 771.71 3.35 768.18 -2.99 764.5 -9.55 760.76 -16.25 756.87 -23.04 752.83 -29.93 748.72 -36.83 744.45 -43.68 740.04 -50.49 735.56 -57.15 730.92 -63.61 726.14 -69.87 721.3 -75.83 716.31 -81.43 711.17 -86.68 705.98 -91.49 700.66 -95.8 695.2 -99.64 689.69 -102.93 684.05 -105.62 678.29 -107.77 672.49 -109.3 666.57 -110.19 660.54 -110.53 654.47 -110.24 648.31 -109.34 642.04 -107.94 635.74 -105.98 629.35 -103.49 622.88 -100.62 616.38 -97.33 609.81 -93.66 603.16 -89.79 596.48 -85.68 589.74 -81.39 582.94 -77.11 576.12 -72.81 569.25 -68.56 562.32 -64.54 555.37 -60.72 548.38 -57.17 541.34 -54.06 534.3 -51.35 527.21 -49.09 520.08 -47.42 512.95 -46.3 505.78 -45.76 498.58 -45.9 491.38 -46.64 484.14 -48 476.87 -50.04 469.61 -52.67 462.31 -55.85 454.99 -59.62 447.67 -63.86 440.32 -68.51 432.94 -73.57 425.57 -78.86 418.22 -84.31 410.89 -89.94 403.55 -95.54 396.24 -101.04 388.95 -106.46 381.65 -111.61 374.38 -116.41 367.13 -120.9 359.88 -124.89 352.64 -128.33 345.43 -131.27 338.21 -133.55 331.02 -135.16 323.84 -136.15 316.66 -136.41 309.49 -135.93 302.35 -134.81 295.2 -132.96 288.07 -130.41 280.96 -127.27 273.84 -123.49 266.74 -119.11 259.66 -114.26 252.57 -108.92 245.49 -103.15 238.44 -97.07 231.37 -90.69 224.33 -84.07 217.3 -77.34 210.27 -70.52 203.25 -63.66 196.25 -56.88 189.25 -50.2 182.27 -43.66 175.31 -37.38 168.34 -31.34 161.4 -25.6 154.47 -20.24 147.55 -15.24 140.65 -10.63 133.78 -6.47 126.91 -2.73 120.07 0.59 113.26 3.44 106.45 5.88 99.68 7.93 92.95 9.53 86.22 10.78 79.53 11.7 72.89 12.26 66.26 12.55 59.67 12.63 53.14 12.44 46.62 12.11 40.16 11.69 33.74 11.12 27.36 10.55 21.04 10 14.77 9.44 8.54 8.98 2.37 8.68 -3.72 8.47 -9.79 8.47 -15.78 8.72 -21.7 9.51 -30.49 12.98 -47.61 15.75 -55.95 17.98 -61.44 20.57 -66.84 23.51 -72.17 26.72 -77.45 30.27 -82.66 34.15 -87.79 38.27 -92.88 42.7 -97.89 47.41 -102.82 52.33 -107.73 57.5 -112.57 62.89 -117.33 68.42 -122.07 74.15 -126.75 80.03 -131.36 86 -135.96 92.09 -140.51 98.27 -145 104.48 -149.49 110.75 -153.93 117.05 -158.33 123.33 -162.74 129.61 -167.11 135.88 -171.45 142.09 -175.81 148.25 -180.14 154.37 -184.45 160.39 -188.78 166.35 -193.1 172.23 -197.39 178.01 -201.72 183.7 -206.04 189.32 -210.34 194.82 -214.68 200.24 -219 205.59 -223.3 210.82 -227.64 215.99 -231.97 221.09 -236.27 226.1 -240.6 231.05 -244.9 235.97 -249.17 240.81 -253.46 245.62 -257.71 250.41 -261.91 255.15 -266.12 259.88 -270.27 264.63 -274.35 269.34 -278.43 274.08 -282.42 278.85 -286.33 283.62 -290.21 288.43 -294 293.3 -297.67 298.18 -301.3 303.13 -304.81 308.16 -308.2 313.21 -311.52 318.35 -314.71 323.57 -317.76 328.85 -320.74 334.21 -323.58 339.67 -326.27 345.19 -328.88 350.81 -331.35 356.52 -333.67 362.3 -335.92 368.18 -338.02 374.16 -339.99 380.2 -341.91 386.34 -343.69 392.58 -345.36 398.88 -346.99 405.28 -348.51 411.76 -349.94 418.31 -351.37 424.94 -352.71 431.66 -354 438.43 -355.31 445.28 -356.57 452.19 -357.81 459.17 -359.11 466.2 -360.39 473.3 -361.68 480.45 -363.06 487.65 -364.45 494.9 -365.88 502.19 -367.41 509.53 -368.99 516.9 -370.62 524.32 -372.36 531.76 -374.17 539.24 -376.02 546.75 -378 554.29 -380.02 561.84 -382.09 569.43 -384.27 577.03 -386.48 584.64 -388.71 592.28 -391.03 599.93 -393.34 607.58 -395.63 615.25 -397.97 622.93 -400.27 630.61 -402.5 638.3 -404.73 645.99 -406.87 653.68 -408.89 661.37 -410.87 669.06 -412.69 676.74 -414.35 684.43 -415.92 692.1 -417.3 699.76 -418.46 707.42 -419.5 715.06 -420.31 722.68 -420.87 730.3 -421.29 737.89 -421.45 745.45 -421.37" stroke-dasharray="0 0" transform="rotate(10.875, 711, 400)" opacity="0.47"></path><path d="M704.98 -367.98C711.42 -367.81 717.77 -367.44 724.02 -366.88 730.27 -366.22 736.41 -365.38 742.45 -364.38 748.49 -363.3 754.41 -362.07 760.23 -360.7 768.87 -358.52 785.55 -353.58 793.58 -350.89 801.46 -348.17 816.55 -342.59 823.76 -339.78 830.82 -337.07 844.25 -331.79 850.64 -329.24 856.89 -326.85 868.77 -322.26 874.43 -320.05 885.34 -315.89 900.98 -309.69 906.03 -307.54 916.25 -302.98 932.02 -295.31 937.57 -292.38 943.42 -289.29 955.93 -282.47 962.69 -278.74 967.47 -276.16 972.44 -273.46 977.62 -270.65 983.05 -267.79 988.72 -264.82 994.64 -261.74 1000.84 -258.62 1007.32 -255.4 1014.09 -252.08 1021.16 -248.73 1028.54 -245.29 1036.25 -241.77 1044.26 -238.23 1052.61 -234.62 1061.29 -230.93 1070.28 -227.25 1079.6 -223.5 1089.26 -219.7 1099.2 -215.9 1109.46 -212.06 1120.02 -208.17 1130.83 -204.3 1141.92 -200.4 1153.26 -196.46 1164.79 -192.55 1176.53 -188.61 1188.45 -184.65 1200.47 -180.71 1212.61 -176.75 1224.83 -172.78 1237.04 -168.83 1249.26 -164.86 1261.44 -160.87 1273.49 -156.92 1285.41 -152.94 1297.14 -148.93 1308.61 -144.96 1319.8 -140.95 1330.65 -136.92 1341.1 -132.91 1351.11 -128.87 1360.62 -124.79 1369.6 -120.73 1377.99 -116.63 1385.73 -112.49 1392.82 -108.35 1399.18 -104.16 1404.77 -99.93 1411.62 -93.54 1419.88 -80.47 1421.17 -73.77 1420.36 -66.98 1413.19 -53.02 1406.96 -45.84 1401.91 -41 1396.15 -36.08 1389.72 -31.09 1382.85 -26.07 1375.44 -20.97 1367.59 -15.8 1359.52 -10.59 1351.17 -5.31 1342.63 0.03 1334.15 5.43 1325.68 10.89 1317.33 16.42 1309.33 21.99 1301.65 27.63 1294.4 33.33 1287.8 39.07 1281.83 44.88 1276.58 50.74 1272.25 56.64 1268.82 62.59 1266.37 68.6 1265.05 74.64 1264.84 80.74 1265.78 86.88 1267.99 93.05 1271.41 99.27 1276.08 105.53 1282.03 111.81 1289.21 118.13 1297.59 124.5 1307.15 130.88 1317.83 137.3 1329.55 143.75 1342.24 150.22 1355.8 156.72 1370.12 163.25 1385.09 169.79 1400.58 176.36 1416.45 182.95 1432.55 189.55 1448.75 196.17 1464.87 202.82 1480.77 209.47 1496.29 216.14 1511.25 222.83 1525.53 229.52 1538.96 236.23 1551.38 242.96 1562.69 249.69 1572.73 256.43 1581.39 263.18 1588.62 269.94 1594.27 276.71 1598.28 283.49 1600.66 290.27 1601.31 297.07 1600.21 303.87 1597.47 310.67 1593.01 317.48 1586.88 324.3 1579.27 331.12 1570.14 337.94 1559.6 344.77 1547.91 351.61 1535.07 358.45 1521.24 365.29 1506.73 372.13 1491.58 378.98 1475.99 385.82 1460.28 392.67 1444.53 399.52 1428.93 406.37 1413.83 413.22 1399.28 420.06 1385.49 426.91 1372.75 433.75 1361.18 440.55 1350.92 447.3 1342.14 454.05 1334.88 460.75 1329.22 467.4 1325.28 474.05 1323.03 480.64 1322.48 487.18 1323.68 493.72 1326.53 500.19 1330.96 506.61 1337 513.02 1344.45 519.37 1353.2 525.65 1363.24 531.93 1374.3 538.13 1386.23 544.26 1399.01 550.38 1412.32 556.43 1426 562.4 1440 568.35 1454 574.21 1467.84 580 1481.48 585.76 1494.62 591.44 1507.08 597.02 1518.87 602.58 1529.7 608.04 1539.46 613.4 1548.15 618.74 1555.55 623.97 1561.58 629.1 1567.91 636.69 1570.86 651.28 1567.45 658.26 1563.25 662.84 1557.62 667.31 1550.6 671.66 1542.33 675.97 1532.83 680.17 1522.2 684.25 1510.58 688.29 1498.03 692.22 1484.69 696.04 1470.68 699.83 1456.12 703.51 1441.13 707.08 1425.83 710.63 1410.36 714.08 1394.84 717.43 1379.38 720.77 1364.11 724.02 1349.14 727.19 1334.55 730.36 1320.47 733.46 1306.98 736.5 1294.15 739.56 1282.06 742.57 1270.78 745.54 1260.35 748.55 1250.83 751.54 1242.24 754.51 1234.62 757.55 1227.97 760.6 1222.3 763.67 1212.31 773.41 1209.67 789.23 1212.48 795.04 1215.28 799.14 1218.61 803.38 1222.4 807.77 1226.7 812.36 1231.33 817.13 1236.2 822.08 1241.39 827.25 1246.7 832.62 1252.04 838.18 1257.51 843.98 1262.88 849.99 1268.11 856.21 1273.27 862.66 1278.17 869.32 1282.76 876.2 1287.13 883.29 1291.1 890.59 1294.62 898.08 1297.81 905.77 1300.49 913.63 1302.63 921.66 1304.35 929.84 1305.5 938.16 1306.06 946.59 1306.14 955.13 1305.62 963.74 1304.51 972.41 1302.9 981.11 1300.69 989.81 1297.9 998.49 1294.62 1007.13 1290.79 1015.69 1286.41 1024.14 1281.58 1032.46 1276.24 1040.61 1270.43 1048.56 1264.21 1056.29 1257.56 1063.75 1250.51 1070.92 1243.11 1077.78 1235.36 1084.29 1227.29 1090.41 1218.94 1096.16 1210.32 1101.47 1201.47 1106.31 1192.4 1110.73 1183.14 1114.64 1173.73 1118.04 1164.17 1120.97 1154.49 1123.36 1144.74 1125.2 1134.89 1126.57 1125 1127.39 1115.09 1127.66 1105.13 1127.49 1095.19 1126.8 1085.29 1125.6 1075.38 1124.01 1065.54 1121.97 1055.77 1119.49 1046.04 1116.72 1036.4 1113.59 1026.87 1110.13 1017.39 1106.5 1008.04 1102.63 998.82 1098.58 989.66 1094.5 980.65 1090.33 971.78 1086.14 962.98 1082.07 954.34 1078.08 945.83 1074.22 937.42 1070.65 929.15 1067.32 921.02 1064.28 912.97 1061.68 905.07 1059.46 897.3 1057.68 889.61 1056.45 882.05 1055.72 874.62 1055.53 867.27 1055.98 860.03 1057.01 852.9 1058.64 845.84 1060.94 838.88 1063.85 832.03 1067.35 825.23 1071.51 818.52 1076.24 811.89 1081.52 805.32 1087.37 798.82 1093.7 792.39 1100.46 786 1107.66 779.67 1115.2 773.41 1123.01 767.17 1131.08 760.99 1139.28 754.85 1147.56 748.74 1155.89 742.66 1164.14 736.63 1172.23 730.61 1180.15 724.63 1187.76 718.67 1195 712.73 1201.83 706.81 1208.15 700.92 1213.88 695.03 1219.02 689.16 1223.47 683.31 1227.16 677.46 1230.13 671.64 1232.27 665.82 1233.56 660.01 1234.05 654.24 1233.65 648.53 1232.39 642.81 1230.35 637.14 1227.48 631.51 1223.82 625.88 1219.47 620.3 1214.41 614.76 1208.71 609.21 1202.47 603.71 1195.69 598.26 1188.45 592.8 1180.88 587.39 1172.98 582.02 1164.84 576.64 1156.57 571.31 1148.21 566.03 1139.82 560.73 1131.53 555.48 1123.36 550.27 1115.38 545.06 1107.69 539.88 1100.32 534.75 1093.31 529.61 1086.77 524.51 1080.68 519.44 1075.09 514.37 1070.09 509.33 1065.64 504.32 1061.76 496.8 1057.22 481.9 1052.08 474.49 1051.43 467.07 1052.23 452.27 1057.03 444.88 1060.79 439.92 1063.82 434.96 1067.1 430.01 1070.59 425.01 1074.33 420.01 1078.18 415.01 1082.07 409.95 1086.06 404.88 1090 399.81 1093.83 394.67 1097.61 389.52 1101.18 384.36 1104.51 376.5 1109.05 360.6 1115.88 352.56 1117.98 344.39 1119.03 327.87 1117.93 319.54 1115.72 313.93 1113.62 308.31 1110.99 302.69 1107.84 297.03 1104.24 291.38 1100.14 285.75 1095.57 280.09 1090.58 274.46 1085.15 268.86 1079.3 263.26 1073.09 257.7 1066.52 252.2 1059.61 246.72 1052.41 241.32 1044.93 235.99 1037.19 230.71 1029.26 225.52 1021.13 220.45 1012.83 215.43 1004.42 210.54 995.89 205.79 987.3 201.11 978.66 196.58 969.99 192.21 961.33 187.93 952.7 183.82 944.12 179.87 935.61 176.03 927.19 172.37 918.88 168.88 910.7 165.49 902.65 162.27 894.76 159.23 887.03 156.28 879.48 153.49 872.11 150.85 864.93 148.28 857.95 145.85 851.16 143.54 844.58 141.28 838.2 139.1 832.03 137.02 826.05 133.91 817.5 127.78 801.61 124.66 794.24 121.34 787.31 114.09 774.39 110.05 768.33 105.56 762.59 95.38 751.66 89.64 746.4 83.33 741.32 69.37 731.32 61.76 726.34 56.43 723.07 50.95 719.76 45.35 716.41 39.61 713.09 33.8 709.71 27.94 706.27 22.01 702.84 16.11 699.34 10.25 695.76 4.43 692.18 -1.26 688.51 -6.81 684.74 -12.21 680.97 -17.38 677.1 -22.29 673.13 -29.11 667.09 -40.48 654.46 -44.85 647.85 -48.19 641.1 -51.83 627.01 -52.12 619.68 -51.36 612.2 -47.11 596.69 -43.79 588.67 -41.25 583.26 -38.43 577.76 -35.39 572.17 -32.26 566.56 -29.01 560.86 -25.69 555.07 -22.45 549.27 -19.23 543.38 -16.11 537.41 -13.22 531.43 -10.53 525.36 -8.07 519.23 -5.99 513.08 -4.23 506.86 -2.84 500.57 -1.92 494.27 -1.42 487.9 -1.37 481.47 -1.83 475.04 -2.75 468.54 -4.13 461.98 -6.03 455.41 -8.35 448.79 -11.09 442.12 -14.27 435.44 -17.79 428.7 -21.6 421.92 -25.74 415.13 -30.04 408.33 -34.46 401.53 -39.02 394.72 -43.57 387.91 -48.04 381.09 -52.47 374.28 -56.7 367.46 -60.68 360.63 -64.45 353.81 -67.85 346.99 -70.84 340.17 -73.48 333.35 -75.63 326.54 -77.26 319.72 -78.45 312.92 -79.07 306.11 -79.13 299.31 -78.69 292.52 -77.68 285.73 -76.1 278.95 -74.05 272.17 -71.46 265.41 -68.36 258.65 -64.86 251.9 -60.91 245.17 -56.55 238.44 -51.89 231.73 -46.91 225.03 -41.64 218.35 -36.21 211.68 -30.6 205.03 -24.85 198.4 -19.07 191.78 -13.24 185.18 -7.43 178.61 -1.71 172.06 3.9 165.53 9.4 159.03 14.69 152.56 19.78 146.11 24.66 139.7 29.24 133.3 33.56 126.95 37.61 120.64 41.31 114.35 44.73 108.1 47.85 101.9 50.62 95.73 53.11 89.61 55.33 83.53 57.22 77.49 58.86 71.5 60.28 65.57 61.92 56.75 64.08 39.48 64.78 31.03 65.26 22.7 66.2 6.44 66.84 -1.47 67.66 -9.27 70.24 -24.45 72.12 -31.84 74.45 -39.1 80.59 -53.25 84.43 -60.14 88.8 -66.94 99.07 -80.21 104.91 -86.7 109.04 -91 113.37 -95.25 117.89 -99.46 122.54 -103.67 127.35 -107.83 132.31 -111.96 137.36 -116.1 142.53 -120.21 147.81 -124.28 153.13 -128.38 158.53 -132.44 164 -136.48 169.48 -140.55 175 -144.59 180.54 -148.61 186.07 -152.66 191.6 -156.69 197.13 -160.7 202.61 -164.74 208.07 -168.76 213.51 -172.76 218.88 -176.79 224.21 -180.79 229.51 -184.77 234.73 -188.78 239.91 -192.76 245.05 -196.7 250.1 -200.67 255.11 -204.59 260.08 -208.47 264.97 -212.37 269.83 -216.21 274.65 -220 279.4 -223.79 284.12 -227.51 288.83 -231.16 295.79 -236.58 309.6 -246.98 316.49 -251.93 323.35 -256.73 337.16 -265.73 344.15 -269.92 351.18 -273.93 365.53 -281.3 372.85 -284.67 380.29 -287.88 395.54 -293.73 403.37 -296.41 411.34 -298.99 427.7 -303.81 436.09 -306.09 441.76 -307.63 447.5 -309.13 453.3 -310.6 459.15 -312.13 465.07 -313.63 471.04 -315.14 477.07 -316.7 483.15 -318.27 489.29 -319.85 495.47 -321.51 501.7 -323.18 507.98 -324.86 514.3 -326.63 520.66 -328.41 527.06 -330.21 533.49 -332.09 539.96 -333.97 546.46 -335.87 552.99 -337.83 559.55 -339.78 566.12 -341.72 572.73 -343.71 579.34 -345.66 585.97 -347.58 592.62 -349.52 599.28 -351.4 605.93 -353.2 612.61 -355 619.28 -356.7 625.94 -358.3 632.61 -359.86 639.27 -361.29 645.91 -362.57 652.57 -363.79 659.2 -364.85 665.79 -365.75 672.4 -366.55 678.97 -367.16 685.5 -367.6 692.04 -367.92 698.53 -368.05 704.97 -367.98" stroke-dasharray="0 0" transform="rotate(21.75, 711, 400)" opacity="0.08"></path><path d="M668.77 -314.6C676.95 -314.35 693.03 -313.02 700.92 -311.97 708.75 -310.72 724.1 -307.58 731.63 -305.74 739.09 -303.79 753.74 -299.52 760.93 -297.24 768.07 -294.96 782.14 -290.26 789.09 -287.88 796.03 -285.55 809.83 -280.9 816.72 -278.59 826.01 -275.65 835.34 -272.65 844.76 -269.58 854.44 -266.65 864.34 -263.6 874.52 -260.37 885.1 -257.2 896.09 -253.8 907.58 -250.12 919.61 -246.41 932.26 -242.36 945.6 -237.97 959.6 -233.47 974.38 -228.6 989.99 -223.36 1006.29 -218.01 1023.45 -212.29 1041.43 -206.24 1060.02 -200.11 1079.36 -193.67 1099.36 -186.96 1119.69 -180.24 1140.44 -173.29 1161.45 -166.16 1182.33 -159.08 1203.07 -151.84 1223.42 -144.49 1243.02 -137.23 1261.73 -129.88 1279.24 -122.44 1295.3 -115.12 1309.65 -107.71 1321.99 -100.22 1332.26 -92.84 1340.12 -85.36 1345.38 -77.77 1348.25 -70.24 1348.39 -62.58 1345.77 -54.76 1340.97 -46.96 1333.68 -38.97 1324.15 -30.79 1313.23 -22.57 1300.79 -14.12 1287.28 -5.44 1273.78 3.31 1260.28 12.32 1247.41 21.58 1236.25 30.95 1226.88 40.58 1219.91 50.46 1216.18 60.47 1215.76 70.72 1219.02 81.2 1226.36 91.82 1237.64 102.65 1252.82 113.69 1271.76 124.84 1293.99 136.18 1319.02 147.69 1346.15 159.3 1374.64 171.06 1403.59 182.94 1432.06 194.91 1459.11 206.98 1483.73 219.15 1494.88 225.25 1505.09 231.38 1514.26 237.52 1522.35 243.68 1529.22 249.85 1534.81 256.03 1539.12 262.23 1542.04 268.43 1543.53 274.64 1543.65 280.87 1542.32 287.1 1539.54 293.33 1535.44 299.57 1529.95 305.82 1523.13 312.06 1515.15 318.31 1505.98 324.56 1495.72 330.81 1484.6 337.06 1472.6 343.31 1459.87 349.55 1446.66 355.79 1432.99 362.02 1419.02 368.24 1405.01 374.47 1391.01 380.68 1377.18 386.87 1363.79 393.07 1350.87 399.25 1338.58 405.41 1327.17 411.57 1316.73 417.67 1307.35 423.71 1299.18 429.75 1292.26 435.72 1286.65 441.64 1281.04 450.47 1279 467.79 1282.5 476.28 1286.66 481.91 1292.06 487.46 1298.61 492.94 1306.33 498.42 1315.02 503.82 1324.57 509.14 1334.96 514.45 1345.98 519.68 1357.47 524.84 1369.43 529.98 1381.61 535.05 1393.87 540.03 1406.19 545 1418.31 549.89 1430.11 554.7 1441.59 559.49 1452.49 564.21 1462.7 568.84 1481.03 578.07 1495.46 586.97 1505.47 595.55 1511.06 604.11 1511.64 612.37 1507.21 620.34 1498.22 628.33 1484.69 636.08 1467.16 643.62 1446.28 651.24 1422.6 658.72 1396.89 666.09 1369.85 673.66 1342.25 681.2 1314.83 688.8 1288.18 696.7 1262.97 704.75 1239.71 713.02 1218.78 721.73 1200.53 730.76 1185.17 740.18 1172.85 750.16 1163.53 760.62 1157.09 771.6 1153.59 783.21 1152.58 795.39 1153.73 808.14 1157.07 821.5 1161.9 835.41 1167.78 849.83 1174.83 864.71 1182.18 879.98 1189.46 895.53 1196.88 911.26 1203.59 927.04 1209.31 942.72 1214.38 958.18 1218.04 973.23 1220.17 987.67 1221.17 1001.41 1220.46 1014.21 1218.05 1025.86 1214.33 1036.37 1208.94 1045.45 1201.98 1052.95 1193.8 1059.02 1184.22 1063.35 1173.38 1065.91 1161.56 1067.02 1148.72 1066.41 1135.03 1064.18 1120.66 1060.84 1105.67 1056.2 1090.22 1050.47 1074.37 1044.31 1058.27 1037.62 1042.03 1030.7 1025.61 1024.26 1009.22 1018.26 992.94 1013.01 976.63 1009.17 960.53 1006.66 944.68 1005.74 928.91 1006.88 913.44 1009.92 898.3 1014.93 890.77 1018.26 883.32 1022.07 875.96 1026.35 868.63 1031.13 861.39 1036.35 854.23 1041.97 847.1 1048 840.06 1054.37 833.1 1061.04 826.16 1068.01 819.31 1075.17 812.54 1082.5 805.79 1089.96 799.11 1097.48 792.52 1104.98 785.94 1112.46 779.44 1119.81 773.01 1126.97 766.59 1133.93 760.24 1140.59 753.96 1146.88 747.69 1152.81 741.48 1158.26 735.33 1163.2 729.19 1167.63 723.11 1171.45 717.08 1174.62 711.05 1177.18 705.08 1179.04 699.16 1180.17 693.23 1180.63 687.39 1180.35 681.62 1179.33 675.85 1177.65 670.16 1175.26 664.54 1172.2 658.91 1168.55 653.35 1164.27 647.85 1159.43 642.35 1154.1 636.91 1148.3 631.53 1142.05 626.13 1135.48 620.79 1128.58 615.51 1121.41 610.2 1114.08 604.95 1106.59 599.75 1099.01 594.53 1091.44 589.36 1083.89 584.22 1076.41 579.07 1069.11 573.95 1061.98 568.87 1055.08 563.76 1048.49 558.69 1042.22 553.65 1036.29 548.57 1030.79 543.52 1025.7 538.5 1021.04 528.35 1013.25 518.27 1007.37 508.25 1003.42 498.06 1001.6 487.89 1001.57 477.75 1003.14 467.39 1006.42 457.03 1010.82 446.66 1016.05 436.06 1022.17 425.45 1028.49 414.81 1034.71 403.98 1040.9 393.13 1046.38 382.3 1050.91 371.31 1054.63 360.37 1056.98 349.52 1057.81 338.59 1057.35 327.81 1055.2 317.23 1051.34 306.69 1046.06 296.42 1039.12 286.47 1030.64 276.7 1020.89 267.32 1009.81 258.39 997.57 249.72 984.42 241.54 970.43 233.87 955.77 226.5 940.65 219.63 925.19 213.24 909.54 207.08 893.85 201.31 878.24 195.89 862.83 190.52 847.7 185.34 832.94 180.26 818.62 174.97 804.78 169.6 791.46 164.03 778.66 158 766.42 151.62 754.71 144.82 743.49 137.39 732.83 129.48 722.59 121.09 712.74 112.09 703.36 102.7 694.27 93.03 685.41 83.01 676.91 72.96 668.55 63.06 660.26 53.29 652.21 44.03 644.15 35.5 636.03 27.65 628.05 20.87 619.94 15.35 611.66 10.9 603.44 7.89 595 6.37 586.32 5.99 577.64 7 568.7 9.3 559.47 11.59 552.5 17.48 538.18 20.88 530.82 24.37 523.38 31.32 508.1 34.54 500.27 37.31 492.35 41.46 476.14 42.67 467.85 43.04 459.48 41.62 442.39 39.8 433.68 38.1 427.85 36.1 421.95 33.81 415.99 31.2 410.03 28.35 404.01 25.29 397.93 21.99 391.85 18.59 385.75 15.1 379.64 11.51 373.52 7.93 367.39 4.4 361.24 0.89 355.1 -2.47 348.94 -5.65 342.77 -8.69 336.61 -11.48 330.44 -13.96 324.27 -16.21 318.1 -18.1 311.93 -19.6 305.76 -20.8 299.59 -21.57 293.43 -21.92 287.27 -21.91 281.12 -21.46 274.97 -20.57 268.84 -19.32 262.71 -17.64 256.59 -15.55 250.49 -13.13 244.4 -10.33 238.32 -7.18 232.26 -3.75 226.22 -0.02 220.2 3.97 214.19 12.5 202.24 21.77 190.39 31.49 178.66 41.2 167.02 50.87 155.52 60.28 144.18 69.05 132.94 77.24 121.89 84.72 111.02 91.27 100.28 97.03 89.74 102.05 79.44 106.16 69.25 109.68 59.29 112.71 49.58 115.15 39.99 117.4 30.63 119.59 21.52 121.62 12.5 123.88 3.71 126.52 -4.83 129.37 -13.33 132.79 -21.62 136.87 -29.72 141.37 -37.8 146.6 -45.72 152.57 -53.48 159 -61.29 166.14 -68.98 173.91 -76.54 182.05 -84.2 190.71 -91.77 199.83 -99.25 209.12 -106.86 218.71 -114.39 228.54 -121.83 238.35 -129.4 248.26 -136.87 258.23 -144.23 268.02 -151.68 277.78 -158.99 287.49 -166.12 296.94 -173.29 306.31 -180.24 315.59 -186.94 324.61 -193.6 333.56 -199.97 342.45 -206.02 351.13 -211.98 359.79 -217.58 368.46 -222.83 376.99 -227.96 385.58 -232.73 394.26 -237.14 402.87 -241.47 411.62 -245.48 420.5 -249.19 429.41 -252.9 438.48 -256.37 447.74 -259.65 457.06 -263.02 466.57 -266.25 476.28 -269.38 486.07 -272.69 496.06 -275.93 506.22 -279.12 513.91 -281.63 529.53 -286.62 537.44 -289.11 545.42 -291.62 561.55 -296.52 569.69 -298.86 577.87 -301.16 594.33 -305.38 602.59 -307.26 610.88 -309 627.46 -311.84 635.75 -312.9 644.04 -313.74 660.55 -314.59 668.76 -314.6" stroke-dasharray="0 0" transform="rotate(32.625, 711, 400)" opacity="0.60"></path><path d="M662.6 -261.21C672.59 -261.04 682.59 -260.43 692.62 -259.41 702.65 -258.27 712.72 -256.76 722.84 -254.91 733 -253.03 743.24 -250.88 753.57 -248.48 763.99 -246.13 774.54 -243.58 785.27 -240.88 796.12 -238.27 807.2 -235.52 818.54 -232.64 830.07 -229.88 841.93 -226.97 854.14 -223.93 866.61 -220.96 879.49 -217.83 892.82 -214.5 906.46 -211.2 920.58 -207.67 935.21 -203.89 950.16 -200.08 965.61 -195.98 981.56 -191.6 997.79 -187.15 1014.46 -182.38 1031.52 -177.32 1048.73 -172.17 1066.21 -166.72 1083.85 -160.98 1101.41 -155.19 1118.93 -149.13 1136.27 -142.84 1153.18 -136.53 1169.63 -130.02 1185.42 -123.32 1200.37 -116.68 1214.35 -109.88 1227.15 -102.96 1238.69 -96.12 1248.74 -89.19 1257.12 -82.17 1263.92 -75.28 1268.84 -68.3 1271.76 -61.26 1273 -54.35 1272.21 -47.36 1269.41 -40.3 1265.13 -33.35 1259.07 -26.3 1251.4 -19.16 1242.85 -12.1 1233.19 -4.91 1222.75 2.39 1212.39 9.67 1201.99 17.1 1191.97 24.69 1183.21 32.29 1175.66 40.07 1169.77 48.04 1166.25 56.05 1165.09 64.27 1166.62 72.69 1171.25 81.17 1178.92 89.87 1189.7 98.77 1203.62 107.75 1220.45 116.94 1239.94 126.32 1261.74 135.79 1285.39 145.45 1310.34 155.29 1335.97 165.2 1361.61 175.28 1386.55 185.51 1410.09 195.81 1431.5 206.24 1450.08 216.79 1465.35 227.4 1476.69 238.11 1483.64 248.9 1486.21 259.74 1484.04 270.64 1477.12 281.59 1466.08 292.57 1450.89 303.59 1432.08 314.61 1410.78 325.66 1387.32 336.7 1362.6 347.72 1338 358.76 1314.04 369.76 1291.68 380.7 1272.21 391.65 1256.19 402.42 1244.16 412.98 1236.69 423.53 1233.77 433.88 1235.39 444.02 1241.65 454.15 1251.92 464.07 1265.68 473.78 1282.68 483.48 1301.83 492.97 1322.33 502.26 1343.8 511.56 1364.98 520.68 1385.06 529.62 1403.77 538.59 1419.99 547.41 1433.15 556.1 1443.24 564.86 1449.5 573.53 1451.76 582.13 1450.26 590.86 1444.74 599.57 1435.41 608.31 1422.72 617.23 1406.83 626.23 1388.24 635.35 1367.46 644.73 1344.96 654.29 1321.33 664.07 1297.03 674.18 1272.65 684.57 1248.69 695.27 1225.5 706.34 1203.57 717.76 1183.23 729.55 1164.7 741.71 1148.22 754.25 1133.92 767.13 1121.89 780.35 1112.11 793.87 1104.48 807.65 1099.08 821.63 1095.59 835.77 1093.79 849.97 1093.77 864.17 1094.99 878.26 1097.19 892.13 1100.51 905.72 1104.3 918.87 1108.3 931.45 1112.75 943.42 1116.95 954.6 1120.71 964.82 1124.34 974.15 1127.2 982.34 1129.15 989.29 1129.05 1001.17 1114.67 1001.45 1105.04 996.24 1097.58 991.95 1089.19 987.02 1079.96 981.64 1070.16 976.42 1059.66 971.22 1048.56 966.31 1037.05 962.23 1025.07 958.91 1012.72 956.55 1000.09 955.65 987.21 956.07 974.14 957.95 960.93 961.6 947.62 966.83 934.27 973.63 920.86 982.12 907.48 991.98 894.15 1003.05 880.83 1015.27 867.59 1028.21 854.49 1041.55 841.4 1055.14 828.46 1068.45 815.66 1081.11 802.89 1092.96 790.28 1103.46 777.82 1112.28 765.37 1119.37 753.07 1124.27 740.91 1126.79 728.75 1127.1 716.85 1124.93 705.2 1120.37 693.52 1113.84 682.06 1105.29 670.81 1095 659.5 1083.49 648.38 1070.87 637.41 1057.52 626.36 1043.94 615.44 1030.33 604.64 1017.02 593.73 1004.48 582.92 992.81 572.18 982.26 561.31 973.17 550.5 965.52 539.74 959.37 528.84 954.98 517.97 952.12 507.13 950.71 496.16 950.91 485.22 952.31 474.31 954.73 463.29 958.28 452.32 962.44 441.41 966.96 430.43 971.96 419.54 976.86 408.77 981.45 398 985.86 387.39 989.54 376.97 992.34 366.62 994.45 356.52 995.39 346.7 995.1 337.03 993.81 327.68 991.18 318.68 987.2 309.9 982.14 301.5 975.78 293.49 968.2 285.71 959.64 278.32 950.01 271.31 939.42 264.48 928.09 257.99 916.01 251.8 903.32 245.68 890.17 239.78 876.61 234.02 862.78 228.2 848.77 222.4 834.67 216.59 820.57 210.52 806.53 204.33 792.63 197.95 778.92 191.19 765.43 184.19 752.22 176.94 739.32 169.28 726.72 161.38 714.45 153.3 702.52 144.92 690.92 136.47 679.63 128.05 668.64 119.59 657.96 111.37 647.54 103.53 637.34 95.98 627.41 89.05 617.65 82.87 608.02 77.3 598.6 72.67 589.25 69.07 579.96 66.26 570.8 64.53 561.65 63.88 552.46 63.95 543.36 64.97 534.18 66.82 524.92 69.06 515.7 71.83 506.36 74.95 496.88 77.92 487.42 80.85 477.8 83.53 468.01 85.52 458.23 86.92 448.28 87.6 438.14 87.22 428 85.98 417.68 83.86 407.19 80.67 396.68 76.73 386.01 72.19 375.17 66.97 364.33 61.6 353.46 56.29 342.58 50.98 331.7 46.21 320.83 42.19 309.96 38.78 299.12 36.46 288.31 35.35 277.54 35.21 266.81 36.39 256.13 38.87 245.54 42.33 234.99 46.96 224.53 52.63 214.19 58.97 203.9 66.06 193.74 73.73 183.72 81.59 173.77 89.69 163.97 97.85 154.34 105.75 144.78 113.45 135.41 120.84 126.22 127.67 117.1 134.06 108.17 140 99.45 145.29 90.78 150.15 82.31 154.61 74.04 158.56 65.8 162.25 57.76 165.78 49.9 169.02 42.05 172.29 34.36 175.68 26.84 179.05 19.29 182.71 11.88 186.72 4.6 190.92 -2.74 195.59 -9.98 200.76 -17.12 206.22 -24.36 212.21 -31.53 218.72 -38.62 225.53 -45.84 232.82 -52.99 240.56 -60.08 248.51 -67.29 256.82 -74.44 265.46 -81.51 274.18 -88.69 283.13 -95.77 292.26 -102.74 301.34 -109.78 310.51 -116.68 319.75 -123.41 328.84 -130.16 337.94 -136.71 347.01 -143.03 355.89 -149.32 364.72 -155.35 373.5 -161.11 382.06 -166.79 390.58 -172.18 399.06 -177.27 407.34 -182.27 415.6 -186.97 423.86 -191.37 431.96 -195.71 440.08 -199.78 448.25 -203.58 456.29 -207.37 464.42 -210.93 472.63 -214.29 480.77 -217.68 489.02 -220.91 497.39 -223.99 505.72 -227.15 514.2 -230.18 522.81 -233.08 531.41 -236.09 540.16 -238.95 549.06 -241.67 557.96 -244.46 567.01 -247.07 576.2 -249.45 585.39 -251.86 594.73 -253.99 604.21 -255.81 613.68 -257.56 623.28 -258.95 633.02 -259.94 642.75 -260.8 652.61 -261.23 662.59 -261.21" stroke-dasharray="0 0" transform="rotate(43.5, 711, 400)" opacity="0.94"></path><path d="M690.86 -207.83C700.8 -207.77 710.91 -207.39 721.18 -206.69 731.48 -205.96 741.98 -204.94 752.67 -203.65 763.41 -202.35 774.38 -200.81 785.59 -199.03 796.87 -197.29 808.41 -195.33 820.23 -193.19 832.14 -191.08 844.34 -188.79 856.83 -186.33 869.43 -183.9 882.34 -181.28 895.53 -178.48 908.84 -175.69 922.44 -172.7 936.29 -169.49 950.22 -166.26 964.37 -162.79 978.71 -159.08 993.04 -155.32 1007.48 -151.29 1021.96 -146.99 1036.31 -142.62 1050.59 -137.98 1064.69 -133.06 1078.49 -128.06 1091.96 -122.8 1104.99 -117.28 1117.49 -111.71 1129.36 -105.9 1140.46 -99.87 1150.81 -93.82 1160.2 -87.58 1168.51 -81.16 1175.86 -74.77 1181.96 -68.23 1186.73 -61.57 1190.39 -54.98 1192.65 -48.28 1193.44 -41.5 1193.15 -34.83 1191.44 -28.08 1188.36 -21.27 1184.43 -14.59 1179.32 -7.86 1173.17 -1.07 1166.62 5.58 1159.41 12.3 1151.76 19.07 1144.37 25.73 1137.05 32.46 1130.1 39.26 1124.2 45.96 1119.22 52.77 1115.49 59.67 1113.55 66.5 1113.34 73.45 1115.11 80.53 1119.21 87.57 1125.57 94.75 1134.29 102.07 1145.46 109.39 1158.93 116.86 1174.61 124.49 1192.31 132.13 1211.76 139.94 1232.65 147.92 1254.57 155.91 1277.11 164.08 1299.77 172.41 1322.07 180.76 1343.48 189.28 1363.45 197.95 1381.54 206.65 1397.2 215.5 1409.98 224.49 1419.69 233.5 1425.86 242.64 1428.27 251.9 1427.11 261.17 1422.11 270.56 1413.37 280.04 1401.52 289.53 1386.53 299.11 1368.85 308.76 1349.44 318.42 1328.51 328.15 1306.74 337.92 1285.25 347.7 1264.35 357.53 1244.78 367.4 1227.54 377.26 1213.04 387.05 1201.71 396.74 1194 406.45 1189.93 416.06 1189.53 425.6 1192.94 435.14 1199.74 444.61 1209.57 454.01 1222.37 463.43 1237.31 472.8 1253.83 482.12 1271.74 491.48 1290.04 500.81 1308.1 510.14 1325.78 519.53 1342.09 528.94 1356.54 538.38 1369.1 547.92 1378.99 557.53 1385.97 567.22 1390.18 577.05 1391.15 587 1388.91 597.08 1383.75 607.34 1375.55 617.77 1364.55 628.38 1351.14 639.19 1335.48 650.2 1317.94 661.42 1298.92 672.85 1278.76 684.49 1257.86 696.34 1236.55 708.37 1215.22 720.59 1194.24 732.97 1173.8 745.47 1154.27 758.08 1135.86 770.75 1118.71 783.43 1103.01 796.09 1088.85 808.64 1076.29 821.05 1065.36 833.25 1056.01 845.13 1048.28 856.69 1042.02 867.79 1037.09 878.34 1033.56 888.36 1031.11 897.69 1029.56 906.21 1029.08 917.49 1031.28 933.97 1033.04 938.94 1035.28 937.06 1027.04 921.62 1021.03 915.72 1016.39 912.32 1011 909.3 1004.91 906.85 998.46 905.39 991.36 904.79 983.66 905.19 975.67 906.92 967.15 909.82 958.15 913.95 948.92 919.52 939.29 926.3 929.3 934.24 919.16 943.41 908.73 953.52 898.04 964.4 887.26 976.01 876.27 987.96 865.11 1000.02 853.91 1012.08 842.57 1023.72 831.12 1034.64 819.65 1044.78 808.09 1053.69 796.46 1061.12 784.83 1067.11 773.14 1071.25 761.38 1073.4 749.63 1073.76 737.97 1072.04 726.39 1068.33 714.8 1062.99 703.29 1055.91 691.86 1047.3 680.42 1037.59 669.04 1026.8 657.73 1015.21 646.39 1003.26 635.11 991.02 623.87 978.79 612.61 966.94 601.39 955.56 590.21 944.85 579 935.14 567.84 926.41 556.72 918.77 545.58 912.48 534.49 907.38 523.46 903.49 512.44 900.98 501.49 899.58 490.63 899.2 479.8 899.98 469.09 901.53 458.52 903.71 448.02 906.65 437.69 909.9 427.55 913.27 417.54 916.93 407.74 920.4 398.2 923.51 388.82 926.47 379.72 928.81 370.91 930.41 362.3 931.51 354 931.7 346.02 930.93 338.24 929.44 330.77 926.92 323.62 923.36 316.63 919.01 309.91 913.65 303.46 907.33 297.11 900.27 290.96 892.33 284.99 883.59 279.01 874.25 273.13 864.23 267.32 853.64 261.39 842.62 255.45 831.15 249.48 819.34 243.29 807.28 237.02 794.99 230.65 782.55 224.03 770.03 217.3 757.45 210.49 744.89 203.45 732.37 196.38 719.92 189.33 707.6 182.17 695.39 175.14 683.34 168.31 671.46 161.57 659.74 155.17 648.21 149.22 636.87 143.55 625.7 138.46 614.71 134.03 603.9 130.05 593.25 126.8 582.75 124.33 572.4 122.36 562.17 121.16 552.06 120.69 542.05 120.62 532.15 121.17 522.31 122.24 512.53 123.46 502.82 125 493.13 126.73 483.47 128.26 473.85 129.73 464.23 131.02 454.59 131.78 444.97 132.16 435.33 132.08 425.65 131.27 415.98 129.93 406.27 128.06 396.5 125.48 386.74 122.46 376.93 119.09 367.08 115.27 357.22 111.4 347.42 107.63 337.71 103.82 327.99 100.41 318.36 97.53 308.8 95.02 299.26 93.28 289.81 92.38 280.45 92.11 271.11 92.78 261.88 94.4 252.77 96.7 243.68 99.89 234.71 103.93 225.88 108.47 217.07 113.7 208.39 119.49 199.87 125.52 191.37 131.91 183.02 138.54 174.83 145.11 166.65 151.74 158.63 158.32 150.76 164.63 142.91 170.77 135.2 176.71 127.65 182.26 120.09 187.57 112.67 192.66 105.39 197.37 98.08 201.9 90.89 206.3 83.82 210.43 76.69 214.53 69.67 218.65 62.74 222.66 55.72 226.81 48.79 231.15 41.92 235.54 34.95 240.21 28.03 245.2 21.18 250.34 14.19 255.87 7.26 261.77 0.37 267.89 -6.64 274.4 -13.6 281.29 -20.51 288.37 -27.53 295.81 -34.49 303.58 -41.36 311.49 -48.32 319.66 -55.18 328.09 -61.92 336.56 -68.71 345.21 -75.35 354.01 -81.82 362.78 -88.3 371.64 -94.58 380.57 -100.64 389.39 -106.67 398.25 -112.46 407.12 -117.99 415.83 -123.45 424.53 -128.65 433.23 -133.58 441.73 -138.42 450.23 -142.99 458.72 -147.28 467.01 -151.51 475.31 -155.47 483.62 -159.18 491.75 -162.85 499.91 -166.28 508.11 -169.49 516.16 -172.69 524.27 -175.69 532.46 -178.5 540.53 -181.33 548.69 -183.98 556.96 -186.44 565.14 -188.95 573.45 -191.29 581.9 -193.43 590.28 -195.61 598.82 -197.59 607.53 -199.36 616.19 -201.14 625.04 -202.68 634.09 -203.96 643.1 -205.22 652.33 -206.2 661.79 -206.88 671.22 -207.52 680.91 -207.84 690.85 -207.83" stroke-dasharray="0 0" transform="rotate(54.375, 711, 400)" opacity="0.32"></path><path d="M733.44 -154.44C743.55 -154.47 753.81 -154.27 764.2 -153.84 774.61 -153.44 785.17 -152.81 795.88 -151.97 806.61 -151.15 817.5 -150.13 828.54 -148.9 839.6 -147.7 850.81 -146.3 862.16 -144.7 873.51 -143.12 884.99 -141.34 896.55 -139.36 908.1 -137.37 919.72 -135.18 931.36 -132.77 942.94 -130.34 954.5 -127.68 965.99 -124.78 977.35 -121.84 988.57 -118.64 999.59 -115.19 1010.38 -111.67 1020.89 -107.89 1031.03 -103.84 1040.83 -99.7 1050.17 -95.3 1058.96 -90.64 1067.29 -85.89 1074.97 -80.88 1081.92 -75.63 1088.3 -70.31 1093.85 -64.76 1098.52 -58.99 1102.53 -53.18 1105.61 -47.17 1107.69 -40.99 1109.12 -34.81 1109.56 -28.47 1109.02 -21.99 1107.91 -15.55 1105.9 -9 1103.05 -2.35 1099.84 4.22 1095.96 10.88 1091.52 17.6 1087.07 24.23 1082.33 30.91 1077.47 37.63 1073.04 44.25 1068.84 50.9 1065.06 57.59 1062.21 64.17 1060.15 70.78 1059.08 77.44 1059.41 83.98 1061.06 90.58 1064.17 97.23 1069.01 103.77 1075.52 110.38 1083.76 117.07 1093.83 123.66 1105.61 130.35 1119.06 137.12 1134.09 143.83 1150.53 150.64 1168.19 157.56 1186.81 164.43 1206.15 171.42 1225.89 178.53 1245.69 185.6 1265.21 192.81 1284.05 200.16 1301.9 207.47 1318.34 214.93 1332.99 222.53 1345.66 230.11 1355.93 237.84 1363.52 245.7 1368.46 253.55 1370.41 261.54 1369.28 269.67 1365.36 277.8 1358.46 286.06 1348.72 294.45 1336.72 302.83 1322.42 311.35 1306.18 320 1288.81 328.64 1270.4 337.4 1251.47 346.3 1232.9 355.19 1214.85 364.2 1197.87 373.35 1182.76 382.49 1169.78 391.65 1159.26 400.84 1151.57 410.03 1146.72 419.25 1144.77 428.5 1145.88 437.76 1149.76 447.06 1156.2 456.4 1165.22 465.77 1176.23 475.2 1188.85 484.68 1203.02 494.21 1217.98 503.81 1233.27 513.49 1248.85 523.23 1263.91 533.06 1278.03 542.99 1291.23 552.99 1302.8 563.11 1312.46 573.34 1320.32 583.66 1325.84 594.09 1328.93 604.65 1329.8 615.29 1328.14 626.04 1324.02 636.91 1317.72 647.84 1309.17 658.87 1298.56 669.98 1286.19 681.11 1272.17 692.3 1256.78 703.49 1240.28 714.66 1222.9 725.8 1204.93 736.85 1186.57 747.79 1168.1 758.59 1149.75 769.18 1131.67 779.56 1114.1 789.65 1097.21 799.39 1081.06 808.8 1065.84 817.76 1051.62 826.2 1038.43 834.21 1026.34 841.61 1015.36 848.34 1005.48 854.54 996.68 860.01 988.88 864.7 979.19 870.46 965.14 877.06 960.23 877.95 950.38 870.21 941.24 857.8 937.58 854.88 933.39 853.44 922.44 855.17 915.62 858.84 910.76 862.7 905.4 867.5 899.54 873.24 893.54 880.06 887.07 887.75 880.15 896.22 873.1 905.52 865.63 915.39 857.76 925.68 849.79 936.37 841.45 947.14 832.77 957.79 824.02 968.29 814.95 978.28 805.58 987.56 796.18 996.1 786.5 1003.56 776.56 1009.74 766.61 1014.73 756.42 1018.19 746.01 1020.02 735.6 1020.39 725.11 1019.07 714.55 1016.11 704 1011.81 693.4 1006.05 682.75 998.97 672.13 990.91 661.48 981.86 650.81 972.01 640.17 961.71 629.51 950.99 618.86 940.05 608.26 929.23 597.66 918.56 587.1 908.22 576.58 898.48 566.11 889.34 555.7 880.91 545.36 873.43 535.1 866.8 524.93 861.08 514.86 856.45 504.91 852.72 495.09 849.88 485.39 848.08 475.85 847.05 466.49 846.72 457.28 847.22 448.26 848.22 439.47 849.62 430.84 851.55 422.45 853.65 414.31 855.79 406.35 858.14 398.64 860.32 391.19 862.21 383.91 864.02 376.89 865.36 370.13 866.16 363.5 866.64 357.11 866.45 350.95 865.56 344.87 864.19 338.98 862.05 333.26 859.15 327.56 855.7 321.98 851.48 316.51 846.52 310.98 841.02 305.51 834.81 300.07 827.95 294.51 820.62 288.95 812.71 283.39 804.27 277.65 795.45 271.9 786.19 266.13 776.55 260.19 766.65 254.26 756.44 248.35 746 242.32 735.39 236.38 724.61 230.55 713.72 224.7 702.75 219.05 691.72 213.65 680.66 208.36 669.6 203.39 658.55 198.82 647.55 194.47 636.58 190.58 625.68 187.18 614.86 184.08 604.11 181.5 593.45 179.46 582.89 177.71 572.4 176.47 562.02 175.7 551.75 175.15 541.53 174.98 531.42 175.14 521.42 175.34 511.46 175.74 501.6 176.27 491.82 176.62 482.09 176.95 472.43 177.2 462.84 177.09 453.28 176.79 443.79 176.25 434.35 175.25 424.93 173.98 415.57 172.45 406.25 170.48 396.93 168.31 387.66 166 378.44 163.4 369.21 160.84 360.13 158.4 351.19 155.92 342.25 153.75 333.46 151.96 324.8 150.37 316.14 149.31 307.61 148.84 299.23 148.72 290.84 149.27 282.59 150.47 274.48 152.09 266.36 154.36 258.38 157.25 250.54 160.49 242.68 164.27 234.96 168.53 227.37 172.99 219.76 177.82 212.28 182.93 204.94 188.07 197.55 193.38 190.29 198.8 183.15 204.1 175.96 209.41 168.88 214.7 161.91 219.79 154.87 224.8 147.92 229.74 141.06 234.45 134.12 239.09 127.26 243.67 120.46 248.07 113.57 252.45 106.73 256.86 99.95 261.16 93.06 265.55 86.21 270.06 79.41 274.57 72.49 279.27 65.6 284.17 58.76 289.17 51.8 294.43 44.88 299.97 38.01 305.66 31.04 311.65 24.12 317.96 17.26 324.43 10.33 331.22 3.48 338.3 -3.26 345.54 -10.06 353.07 -16.74 360.85 -23.29 368.75 -29.85 376.87 -36.25 385.2 -42.48 393.59 -48.67 402.14 -54.67 410.84 -60.45 419.54 -66.16 428.34 -71.65 437.23 -76.89 446.07 -82.04 454.97 -86.94 463.92 -91.57 472.77 -96.11 481.66 -100.38 490.57 -104.39 499.36 -108.31 508.17 -111.97 517 -115.38 525.7 -118.72 534.43 -121.81 543.18 -124.67 551.8 -127.49 560.47 -130.09 569.18 -132.47 577.77 -134.84 586.43 -137 595.16 -138.97 603.8 -140.94 612.53 -142.73 621.36 -144.32 630.12 -145.93 639 -147.36 648.02 -148.59 656.99 -149.84 666.11 -150.9 675.41 -151.75 684.67 -152.63 694.13 -153.29 703.79 -153.73 713.44 -154.2 723.31 -154.44 733.43 -154.44" stroke-dasharray="0 0" transform="rotate(65.25, 711, 400)" opacity="0.13"></path><path d="M760.05 -101.06C769.82 -101.16 779.57 -101.09 789.3 -100.87 799.04 -100.71 808.76 -100.38 818.44 -99.9 828.12 -99.47 837.76 -98.86 847.34 -98.09 856.89 -97.36 866.37 -96.44 875.74 -95.34 885.06 -94.26 894.25 -92.98 903.28 -91.5 912.22 -90.01 920.96 -88.3 929.45 -86.38 937.82 -84.42 945.89 -82.23 953.64 -79.8 961.19 -77.3 968.36 -74.55 975.11 -71.55 981.61 -68.46 987.63 -65.11 993.13 -61.5 1000.64 -55.81 1012.22 -42.97 1016.18 -35.85 1018.98 -28.36 1020.95 -12.14 1020.22 -3.48 1019.36 2.39 1018.02 8.43 1016.25 14.63 1014.48 20.85 1012.42 27.19 1010.18 33.65 1008.16 40.1 1006.15 46.64 1004.25 53.26 1002.87 59.84 1001.83 66.49 1001.25 73.19 1001.5 79.83 1002.43 86.52 1004.18 93.25 1007.01 99.89 1010.84 106.57 1015.77 113.28 1021.95 119.9 1029.34 126.56 1037.95 133.25 1047.86 139.84 1058.98 146.47 1071.27 153.15 1084.69 159.73 1099.11 166.36 1114.43 173.05 1130.47 179.64 1147.08 186.31 1164.06 193.04 1181.19 199.69 1198.24 206.42 1214.96 213.24 1231.12 219.99 1246.45 226.83 1260.67 233.77 1273.62 240.66 1284.99 247.66 1294.56 254.76 1302.27 261.82 1307.84 269 1311.12 276.3 1312.25 283.56 1310.99 290.96 1307.32 298.48 1301.59 305.98 1293.64 313.61 1283.59 321.38 1272 329.13 1258.77 337.03 1244.2 345.06 1228.95 353.09 1213.01 361.27 1196.78 369.6 1180.93 377.92 1165.54 386.4 1150.97 395.04 1137.87 403.68 1126.39 412.39 1116.77 421.15 1109.32 429.93 1104.04 438.77 1100.97 447.68 1100.31 456.6 1101.84 465.6 1105.44 474.67 1111.19 483.75 1118.68 492.91 1127.67 502.15 1138.18 511.4 1149.65 520.73 1161.78 530.13 1174.58 539.56 1187.41 549.05 1199.99 558.61 1212.35 568.18 1223.89 577.81 1234.36 587.49 1243.87 597.17 1251.89 606.88 1258.27 616.61 1263.2 626.32 1266.28 636.03 1267.46 645.7 1266.97 655.33 1264.59 664.89 1260.36 674.37 1254.53 683.75 1247.03 693 1237.98 702.08 1227.62 711.01 1215.99 719.72 1203.28 728.18 1189.67 736.42 1175.3 744.35 1160.36 751.92 1144.98 759.21 1129.35 766.09 1113.62 772.52 1097.89 778.61 1082.32 784.2 1067.06 789.25 1052.13 793.93 1037.68 798.04 1023.79 801.56 1010.45 804.7 997.78 807.24 985.8 809.19 974.49 810.78 963.89 811.81 953.99 812.29 944.78 812.5 936.22 812.24 928.29 811.54 920.98 810.71 914.21 809.55 907.92 808.14 899.46 806.05 884.79 802.01 878.24 800.55 872.21 800.14 860.46 802.48 854.47 805.61 850.53 808.73 846.4 812.53 842.05 817.03 837.73 822.39 833.14 828.42 828.29 835.12 823.41 842.55 818.24 850.53 812.76 858.99 807.24 867.95 801.4 877.18 795.24 886.57 789.04 896.12 782.53 905.56 775.69 914.76 768.82 923.71 761.64 932.12 754.15 939.85 746.64 946.93 738.85 953.07 730.77 958.15 722.68 962.25 714.33 965.1 705.73 966.63 697.12 967.02 688.39 966.03 679.54 963.71 670.71 960.32 661.79 955.71 652.79 950 643.83 943.46 634.81 936.02 625.75 927.83 616.74 919.16 607.72 910.01 598.69 900.52 589.73 890.96 580.79 881.33 571.89 871.77 563.07 862.51 554.31 853.54 545.63 844.97 537.05 836.99 528.57 829.55 520.2 822.72 511.94 816.67 503.82 811.28 495.85 806.56 488.01 802.67 480.34 799.44 472.84 796.83 465.48 794.99 458.3 793.68 451.33 792.84 444.49 792.62 437.85 792.74 431.42 793.12 425.11 793.92 419 794.83 413.09 795.76 404.45 797.42 388.17 799.87 380.45 800.3 372.87 800.09 358.16 796.86 350.95 793.7 346.07 791.08 341.22 787.89 336.4 784.15 331.46 780.06 326.53 775.42 321.61 770.27 316.55 764.78 311.51 758.8 306.51 752.38 301.38 745.66 296.3 738.54 291.29 731.05 286.21 723.33 281.24 715.29 276.41 706.98 271.57 698.48 266.92 689.76 262.5 680.85 258.14 671.82 254.05 662.64 250.26 653.34 246.6 643.97 243.28 634.51 240.31 625.01 237.49 615.46 235.04 605.89 232.96 596.31 231.02 586.72 229.42 577.15 228.14 567.59 226.95 558.05 226.04 548.54 225.35 539.08 224.67 529.63 224.15 520.24 223.75 510.91 223.24 501.6 222.78 492.34 222.33 483.16 221.68 473.99 220.99 464.89 220.25 455.86 219.25 446.84 218.18 437.88 217.05 428.99 215.69 420.11 214.29 411.29 212.9 402.54 211.35 393.78 209.91 385.19 208.61 376.76 207.29 368.32 206.21 360.03 205.41 351.89 204.71 343.74 204.38 335.73 204.44 327.87 204.69 319.98 205.37 312.23 206.5 304.6 207.85 296.95 209.64 289.43 211.86 282.02 214.28 274.57 217.09 267.24 220.25 260.02 223.54 252.75 227.13 245.58 230.98 238.5 234.85 231.37 238.92 224.32 243.14 217.36 247.31 210.32 251.57 203.36 255.9 196.46 260.12 189.48 264.38 182.57 268.65 175.7 272.8 168.75 276.95 161.84 281.13 154.98 285.19 148.03 289.28 141.11 293.42 134.23 297.49 127.26 301.64 120.33 305.9 113.43 310.14 106.45 314.53 99.51 319.08 92.61 323.69 85.65 328.49 78.74 333.52 71.89 338.65 64.99 344.02 58.17 349.65 51.44 355.41 44.68 361.44 38.03 367.74 31.49 374.19 24.97 380.9 18.58 387.86 12.35 394.97 6.15 402.32 0.13 409.89 -5.69 417.59 -11.45 425.49 -17 433.58 -22.34 441.76 -27.58 450.1 -32.59 458.58 -37.35 467.12 -42.02 475.77 -46.42 484.53 -50.57 493.31 -54.62 502.18 -58.4 511.11 -61.93 520.04 -65.35 529.02 -68.53 538.05 -71.45 547.05 -74.29 556.09 -76.89 565.16 -79.25 574.19 -81.56 583.26 -83.65 592.36 -85.53 601.42 -87.38 610.51 -89.03 619.64 -90.48 628.73 -91.93 637.86 -93.21 647.04 -94.3 656.19 -95.43 665.39 -96.39 674.66 -97.18 683.91 -98.02 693.23 -98.7 702.63 -99.22 712.01 -99.81 721.49 -100.24 731.06 -100.51 740.62 -100.85 750.28 -101.03 760.04 -101.06" stroke-dasharray="0 0" transform="rotate(76.125, 711, 400)" opacity="0.74"></path><path d="M751.77 -47.67C760.39 -47.82 768.86 -47.86 777.17 -47.78 785.46 -47.8 793.58 -47.7 801.5 -47.47 809.4 -47.33 817.09 -47.05 824.56 -46.63 831.99 -46.26 839.17 -45.74 846.1 -45.07 852.96 -44.42 859.54 -43.59 865.82 -42.59 874.95 -40.97 891.34 -36.68 898.53 -33.96 905.14 -30.91 916.13 -23.5 920.48 -19.11 924.23 -14.32 929.57 -3.33 931.25 2.84 932.55 9.42 933.92 23.85 934.23 31.65 934.75 39.77 936.46 56.95 938.04 65.96 939.69 72.04 941.71 78.25 944.19 84.57 947.34 90.9 951.06 97.32 955.44 103.83 960.61 110.32 966.52 116.89 973.22 123.52 980.78 130.12 989.16 136.77 998.38 143.47 1008.44 150.12 1019.3 156.81 1030.92 163.54 1043.25 170.22 1056.22 176.93 1069.76 183.67 1083.73 190.36 1098.06 197.08 1112.6 203.83 1127.22 210.52 1141.77 217.26 1156.09 224.03 1170.03 230.75 1183.42 237.51 1196.06 244.32 1207.85 251.08 1218.59 257.9 1228.08 264.78 1236.32 271.6 1243.05 278.5 1248.16 285.47 1251.74 292.4 1253.53 299.41 1253.5 306.5 1251.85 313.56 1248.38 320.71 1243.13 327.95 1236.45 335.17 1228.16 342.49 1218.42 349.91 1207.66 357.32 1195.8 364.84 1183.04 372.47 1169.92 380.1 1156.37 387.84 1142.67 395.7 1129.35 403.56 1116.4 411.54 1104.07 419.66 1092.86 427.77 1082.85 435.92 1074.21 444.1 1067.19 452.29 1061.77 460.51 1057.99 468.76 1056.05 477.01 1055.77 485.29 1057.1 493.6 1060.15 501.91 1064.64 510.24 1070.42 518.58 1077.56 526.91 1085.67 535.25 1094.54 543.59 1104.25 551.91 1114.33 560.22 1124.55 568.49 1135.02 576.74 1145.23 584.94 1154.99 593.08 1164.43 601.17 1173.08 609.18 1180.79 617.09 1187.72 624.92 1193.47 632.63 1197.96 640.18 1201.38 647.63 1203.41 654.9 1204.05 661.96 1203.5 668.89 1201.54 675.58 1198.23 682 1193.78 688.26 1188.06 694.22 1181.17 699.85 1173.3 705.29 1164.42 710.38 1154.65 715.09 1144.13 719.59 1132.92 723.69 1121.14 727.38 1108.89 730.84 1096.27 733.89 1083.39 736.51 1070.3 738.92 1057.13 740.91 1043.98 742.5 1030.84 743.9 1017.86 744.93 1005.09 745.6 992.52 746.16 980.26 746.41 968.35 746.38 956.74 746.35 945.54 746.11 934.75 745.72 924.33 745.44 914.33 745.1 904.75 744.74 895.54 744.64 886.73 744.64 878.3 744.78 870.21 745.32 862.46 746.1 855.02 747.19 847.88 748.79 840.99 750.78 834.33 753.19 827.9 756.2 821.65 759.69 815.53 763.66 809.59 768.27 803.73 773.38 797.93 778.97 792.25 785.14 786.59 791.75 780.9 798.76 775.3 806.23 769.64 813.99 763.91 821.96 758.23 830.2 752.44 838.5 746.55 846.77 740.67 855.04 734.67 863.1 728.52 870.83 722.38 878.28 716.1 885.22 709.66 891.53 703.22 897.29 696.62 902.26 689.88 906.34 683.13 909.67 676.23 911.98 669.19 913.25 662.15 913.63 655.06 912.92 647.93 911.14 640.81 908.53 633.66 904.94 626.49 900.43 619.35 895.24 612.21 889.27 605.08 882.63 597.99 875.53 590.92 867.94 583.9 859.95 576.92 851.78 570 843.41 563.16 834.93 556.37 826.54 549.66 818.22 543.06 810.05 536.52 802.19 530.09 794.62 523.78 787.39 517.55 780.64 511.44 774.32 505.48 768.44 499.59 763.15 493.84 758.34 488.24 754 480.02 748.62 464.4 740.87 457.01 738.32 449.79 736.74 436.01 735.11 429.41 734.77 422.86 734.73 410.05 734.34 403.74 733.74 397.33 732.85 384.49 729.39 378.02 726.7 371.38 723.38 358 714.49 351.3 708.93 346.74 704.89 342.24 700.48 337.82 695.7 333.33 690.74 328.95 685.43 324.69 679.8 320.41 674.01 316.28 667.92 312.32 661.56 308.39 655.07 304.67 648.33 301.16 641.37 297.71 634.3 294.51 627.04 291.55 619.62 288.67 612.11 286.05 604.46 283.69 596.69 281.4 588.86 279.36 580.94 277.56 572.93 275.81 564.89 274.28 556.78 272.95 548.63 271.63 540.45 270.47 532.24 269.47 524.01 268.43 515.77 267.51 507.51 266.69 499.25 265.79 490.99 264.97 482.72 264.23 474.47 263.39 466.22 262.61 457.98 261.91 449.75 261.11 441.53 260.4 433.32 259.8 425.14 259.14 416.95 258.62 408.87 258.27 400.91 257.91 392.95 257.75 385.09 257.82 377.33 257.93 369.57 258.3 361.91 258.94 354.35 259.65 346.77 260.65 339.28 261.94 331.89 263.32 324.47 264.98 317.13 266.93 309.87 268.94 302.58 271.22 295.36 273.74 288.22 276.3 281.03 279.07 273.91 282.03 266.84 284.99 259.73 288.1 252.67 291.35 245.66 294.54 238.61 297.85 231.59 301.24 224.62 304.55 217.59 307.93 210.61 311.37 203.66 314.71 196.65 318.11 189.69 321.56 182.76 324.92 175.78 328.35 168.84 331.85 161.94 335.28 155 338.8 148.11 342.42 141.27 346.01 134.4 349.73 127.59 353.58 120.85 357.46 114.1 361.5 107.42 365.71 100.84 369.98 94.26 374.46 87.79 379.13 81.44 383.9 75.11 388.9 68.92 394.11 62.87 399.46 56.87 405.03 51.04 410.82 45.38 416.76 39.8 422.93 34.4 429.3 29.21 435.82 24.11 442.55 19.23 449.48 14.57 456.53 10.01 463.77 5.69 471.18 1.6 478.71 -2.36 486.38 -6.09 494.2 -9.57 502.11 -12.95 510.14 -16.08 518.28 -18.97 526.49 -21.76 534.8 -24.32 543.18 -26.64 551.61 -28.89 560.11 -30.91 568.66 -32.72 577.25 -34.48 585.88 -36.03 594.55 -37.39 603.24 -38.73 611.95 -39.89 620.68 -40.88 629.43 -41.88 638.18 -42.72 646.94 -43.41 655.72 -44.14 664.49 -44.73 673.26 -45.19 682.03 -45.72 690.8 -46.13 699.54 -46.42 708.3 -46.79 717.04 -47.06 725.74 -47.22 734.45 -47.48 743.13 -47.63 751.76 -47.67" stroke-dasharray="0 0" transform="rotate(87, 711, 400)" opacity="0.76"></path><path d="M714.47 5.7C721.51 5.52 728.34 5.42 734.96 5.39 741.57 5.26 747.97 5.21 754.14 5.25 763.24 5.24 780.2 5.63 788.02 6.08 795.54 6.62 809.19 8.43 815.33 9.75 826.32 13.33 840.39 20.91 844.33 24.28 848.17 28 855.32 36.74 858.79 41.74 862.48 47.13 870.44 59.13 874.92 65.72 878.29 70.27 881.89 75.02 885.77 79.94 890.06 84.95 894.7 90.13 899.73 95.46 905.23 100.86 911.18 106.41 917.6 112.09 924.55 117.82 932 123.67 939.97 129.64 948.47 135.63 957.49 141.73 967.02 147.91 977.03 154.11 987.5 160.39 998.41 166.75 1009.69 173.1 1021.3 179.52 1033.2 185.99 1045.29 192.46 1057.52 198.97 1069.79 205.53 1082.03 212.07 1094.14 218.66 1106.01 225.28 1117.57 231.88 1128.68 238.51 1139.24 245.18 1149.19 251.82 1158.38 258.5 1166.7 265.21 1174.14 271.9 1180.53 278.62 1185.78 285.37 1189.96 292.11 1192.87 298.88 1194.46 305.68 1194.88 312.47 1193.94 319.3 1191.64 326.17 1188.21 333.03 1183.48 339.93 1177.49 346.88 1170.57 353.82 1162.57 360.81 1153.58 367.85 1144 374.88 1133.69 381.97 1122.81 389.12 1111.78 396.26 1100.51 403.46 1089.16 410.71 1078.16 417.96 1067.44 425.28 1057.16 432.65 1047.72 440.02 1039.14 447.36 1031.53 454.66 1025.1 461.96 1019.8 469.23 1015.68 476.45 1012.89 483.67 1011.32 490.84 1010.95 497.96 1011.9 505.07 1013.96 512.11 1017.05 519.08 1021.28 526.04 1026.36 532.92 1032.18 539.7 1038.83 546.45 1045.98 553.1 1053.48 559.64 1061.45 566.13 1069.51 572.49 1077.52 578.71 1085.62 584.87 1093.43 590.87 1100.81 596.69 1107.95 602.44 1114.46 608 1120.26 613.35 1127.74 621.14 1137.17 635.38 1138.91 641.79 1138.46 647.76 1131.47 658.14 1125.08 662.52 1119.82 665.24 1113.76 667.67 1106.97 669.83 1099.58 671.89 1091.58 673.69 1083.03 675.22 1074.04 676.71 1064.61 677.97 1054.84 679.01 1044.77 680.05 1034.47 680.91 1023.99 681.63 1013.35 682.4 1002.64 683.08 991.9 683.69 981.13 684.43 970.42 685.17 959.8 685.93 949.23 686.91 938.81 687.98 928.57 689.17 918.45 690.66 908.53 692.33 898.84 694.22 889.29 696.48 879.98 699 870.9 701.81 861.99 705.05 853.32 708.6 844.87 712.48 836.59 716.81 828.51 721.47 820.65 726.46 812.93 731.87 805.4 737.59 798.04 743.6 790.8 749.96 783.71 756.55 776.75 763.32 769.9 770.33 763.15 777.44 756.51 784.6 749.94 791.84 743.44 799 737.02 806.03 730.64 812.96 724.32 819.63 718.04 825.95 711.78 832 705.56 837.57 699.36 842.61 693.17 847.19 687 851.12 680.84 854.35 674.69 856.98 668.54 858.84 662.39 859.86 656.25 860.22 650.19 859.74 644.2 858.42 638.21 856.47 632.3 853.74 626.48 850.27 620.65 846.27 614.91 841.62 609.26 836.38 603.61 830.74 598.06 824.64 592.61 818.13 587.16 811.41 581.81 804.41 576.57 797.2 571.34 789.95 566.22 782.62 561.21 775.27 556.21 768.04 551.32 760.89 546.56 753.88 541.79 747.12 537.15 740.58 532.62 734.27 528.08 728.33 523.66 722.67 519.36 717.31 512.92 710.05 500.53 697.74 494.54 692.65 488.56 688.42 476.85 681.67 471.08 678.98 465.23 676.83 453.53 673.16 447.65 671.46 441.61 669.89 429.38 666.33 423.2 664.2 416.84 661.87 404.06 656.06 397.67 652.51 391.19 648.59 378.49 639.27 372.32 633.88 366.24 628.08 354.74 615.07 349.4 607.89 345.93 602.95 342.64 597.78 339.55 592.4 336.51 586.96 333.67 581.31 331.04 575.49 328.47 569.61 326.1 563.56 323.94 557.36 321.84 551.12 319.94 544.73 318.24 538.22 316.59 531.68 315.12 525.01 313.83 518.25 312.58 511.46 311.49 504.58 310.57 497.61 309.67 490.63 308.93 483.57 308.34 476.43 307.76 469.3 307.33 462.1 307.05 454.83 306.77 447.57 306.66 440.25 306.7 432.88 306.76 425.5 306.98 418.17 307.38 410.87 307.79 403.58 308.38 396.32 309.16 389.1 309.95 381.88 310.94 374.7 312.12 367.57 313.32 360.42 314.71 353.32 316.28 346.25 317.87 339.18 319.65 332.14 321.59 325.14 323.53 318.12 325.64 311.14 327.89 304.2 330.12 297.24 332.48 290.31 334.97 283.41 337.4 276.5 339.94 269.62 342.57 262.77 345.13 255.91 347.77 249.07 350.48 242.28 353.09 235.47 355.77 228.69 358.51 221.96 361.15 215.21 363.84 208.51 366.59 201.86 369.24 195.2 371.96 188.6 374.73 182.06 377.44 175.53 380.21 169.06 383.07 162.67 385.88 156.3 388.78 150.02 391.79 143.83 394.78 137.68 397.9 131.63 401.14 125.7 404.4 119.82 407.81 114.06 411.37 108.45 414.98 102.9 418.76 97.5 422.71 92.26 426.74 87.11 430.94 82.12 435.33 77.32 439.82 72.62 444.5 68.1 449.35 63.79 454.32 59.57 459.48 55.56 464.81 51.77 470.26 48.08 475.88 44.61 481.66 41.36 487.56 38.2 493.62 35.27 499.82 32.56 506.13 29.95 512.57 27.55 519.14 25.36 525.8 23.25 532.57 21.35 539.44 19.65 546.4 18.01 553.43 16.56 560.54 15.29 567.72 14.05 574.96 12.99 582.23 12.09 589.57 11.19 596.94 10.44 604.33 9.84 611.76 9.2 619.2 8.69 626.63 8.31 634.1 7.87 641.56 7.53 648.97 7.29 656.42 6.98 663.83 6.75 671.18 6.61 678.54 6.36 685.84 6.2 693.06 6.1 700.29 5.9 707.43 5.77 714.46 5.7" stroke-dasharray="0 0" transform="rotate(97.875, 711, 400)" opacity="0.44"></path><path d="M674.71 59.09C682.98 58.82 698.86 58.4 706.45 58.27 713.9 58.07 728.09 57.96 734.85 58.09 743.77 58.19 752.22 58.77 760.23 59.88 768.37 60.99 776.22 62.74 783.89 65.15 791.89 67.75 799.93 71.1 808.18 75.19 817.05 79.59 826.41 84.79 836.43 90.75 847.39 97.06 859.27 104.13 872.22 111.9 886.31 120.01 901.59 128.77 918.05 138.13 935.57 147.75 954.13 157.9 973.51 168.5 993.4 179.29 1013.59 190.46 1033.64 201.94 1053.16 213.53 1071.69 225.39 1088.65 237.44 1103.76 249.54 1116.37 261.82 1125.92 274.21 1132.55 286.62 1135.52 299.15 1134.58 311.74 1130.47 324.34 1122.59 337.02 1111.18 349.73 1104.62 356.09 1097.35 362.46 1089.46 368.84 1081.26 375.22 1072.6 381.6 1063.61 387.99 1054.58 394.38 1045.42 400.78 1036.24 407.17 1027.35 413.56 1018.65 419.95 1010.26 426.34 1002.47 432.72 995.26 439.01 988.71 445.22 982.98 451.42 978.02 457.52 973.86 463.53 970.64 469.53 968.26 475.42 966.72 481.2 966.14 486.98 966.36 492.63 967.36 498.17 971.95 509.18 979.04 519.66 988.04 529.55 999.11 539.32 1010.87 548.44 1022.61 556.87 1034.62 565.12 1045.44 572.64 1054.57 579.39 1065.26 588.86 1071.13 603.9 1065.96 609.68 1059.72 613.42 1051.16 616.72 1040.59 619.69 1028.57 623.04 1015.03 626.33 1000.32 629.71 984.78 633.84 968.55 638.33 951.95 643.35 935.03 649.44 918.08 656.25 901.31 663.87 884.56 672.67 868.17 682.29 852.24 692.67 836.49 704 821.25 715.84 806.57 727.93 792.07 740.38 778.1 752.58 764.64 764.15 757.97 769.75 751.41 775.08 744.97 780.09 738.56 784.84 732.26 789.2 726.06 793.1 719.88 796.65 713.8 799.69 707.82 802.17 698.9 804.94 681.56 806.66 673.26 805.56 667.76 804.16 662.41 802.15 657.2 799.57 651.98 796.58 646.89 793.07 641.93 789.08 636.96 784.76 632.11 780.03 627.38 774.93 617.87 764.1 608.83 752.27 600.23 739.81 591.5 727.34 583.16 714.81 575.2 702.5 567.02 690.89 559.15 679.85 551.55 669.5 543.65 660.22 535.94 651.71 528.39 643.96 520.45 637.29 512.59 631.24 504.79 625.7 496.56 621 488.35 616.57 480.16 612.25 471.56 608.45 463.01 604.51 454.55 600.3 445.77 596.31 437.18 591.84 428.82 586.83 420.35 581.83 412.24 576.16 404.59 569.8 397.02 563.33 390.03 556.14 383.69 548.24 377.6 540.2 372.25 531.46 367.66 522.06 363.41 512.55 359.95 502.42 357.31 491.72 355.61 483.59 353.32 466.66 352.73 457.89 352.46 451.99 352.39 445.98 352.51 439.86 352.68 433.74 353.05 427.51 353.61 421.18 354.21 414.86 354.99 408.51 355.94 402.14 356.93 395.78 358.08 389.41 359.39 383.02 360.71 376.64 362.19 370.25 363.82 363.86 365.44 357.48 367.2 351.09 369.09 344.71 372.8 331.96 376.96 319.24 381.51 306.57 385.83 293.93 390.44 281.37 395.29 268.92 399.76 256.52 404.41 244.27 409.2 232.21 413.56 220.24 418.07 208.51 422.71 197.08 426.98 185.8 431.46 174.89 436.18 164.4 440.67 154.15 445.51 144.39 450.72 135.21 455.9 126.32 461.56 118.05 467.71 110.47 474 103.23 480.85 96.71 488.26 90.95 495.9 85.5 504.12 80.81 512.86 76.87 521.87 73.18 531.38 70.18 541.32 67.87 551.5 65.66 562.05 64.03 572.88 62.96 583.9 61.8 595.12 61.08 606.44 60.75 615.01 60.4 632.2 59.95 640.78 59.82 649.35 59.59 666.33 59.23 674.7 59.09" stroke-dasharray="0 0" transform="rotate(108.75, 711, 400)" opacity="0.99"></path><path d="M660.76 112.47C669.93 111.98 679.04 111.65 688.09 111.51 697.16 111.02 706.21 110.79 715.25 110.83 724.38 110.65 733.58 110.84 742.9 111.42 752.41 111.93 762.16 112.92 772.19 114.42 782.54 115.99 793.32 118.14 804.56 120.88 816.26 123.79 828.53 127.34 841.41 131.51 854.8 135.92 868.82 140.97 883.44 146.63 898.48 152.54 914.03 159.05 929.93 166.1 945.96 173.41 962.09 181.22 978.05 189.48 993.63 197.96 1008.62 206.85 1022.67 216.08 1035.69 225.48 1047.25 235.19 1057.01 245.14 1065.09 255.21 1070.92 265.48 1074.27 275.91 1075.55 286.42 1074.17 297.04 1070.09 307.74 1064.08 318.49 1055.63 329.29 1044.97 340.09 1033.16 350.92 1019.85 361.73 1005.5 372.47 991.31 383.24 977.08 393.91 963.35 404.45 951.27 414.99 940.85 425.13 932.38 434.83 926.4 444.51 922.62 453.74 921 462.5 921.88 471.21 924.62 479.44 928.94 487.15 935.1 494.82 942.18 501.98 949.79 508.62 958.26 515.23 966.53 521.35 974.24 526.99 981.85 532.65 988.33 537.9 993.46 542.77 999.16 550.12 1000.47 564.14 996.03 571.23 991.45 576.42 985.35 581.77 977.91 587.37 969.62 593.59 960.23 600.19 949.94 607.2 939.08 614.93 927.57 623.13 915.6 631.77 903.32 641.09 890.77 650.77 878.11 660.72 865.32 671.1 852.55 681.53 839.89 691.81 827.22 702.09 814.73 711.89 802.49 720.97 790.29 729.51 778.35 736.94 766.71 743.03 755.1 748.09 743.78 751.49 732.76 753.09 721.75 753.36 711.25 751.74 701.26 748.35 691.22 743.79 681.62 737.68 672.44 730.24 663.16 722.04 654.24 712.86 645.65 702.93 636.9 692.76 628.42 682.19 620.17 671.45 611.71 660.92 603.42 650.48 595.28 640.26 586.87 630.57 578.56 621.24 570.32 612.31 561.78 604.05 553.29 596.19 544.84 588.73 536.11 581.91 527.41 575.39 518.78 569.12 509.93 563.36 501.17 557.71 492.57 552.09 483.86 546.82 475.36 541.45 467.17 535.91 459 530.57 451.21 524.95 443.9 518.99 436.76 513.12 430.18 506.84 424.23 500.14 418.59 493.44 413.65 486.28 409.46 478.64 405.66 470.99 402.64 462.85 400.45 454.24 398.65 445.6 397.67 436.49 397.53 426.94 397.73 417.37 398.72 407.37 400.51 396.97 402.54 386.57 405.23 376.02 408.52 365.39 411.88 354.78 415.73 344.11 420.01 333.42 424.19 322.77 428.7 312.13 433.48 301.54 438.01 291.03 442.73 280.6 447.57 270.32 452.06 260.14 456.64 250.13 461.28 240.36 465.5 230.73 469.78 221.37 474.11 212.36 478.05 203.52 482.07 195.07 486.21 187.05 490.02 179.26 494.01 171.94 498.2 165.15 502.17 158.6 506.43 152.61 510.99 147.21 515.44 142.04 520.26 137.47 525.47 133.52 530.66 129.76 536.27 126.58 542.3 123.99 548.37 121.52 554.86 119.57 561.75 118.13 568.71 116.69 576.05 115.68 583.75 115.09 591.5 114.34 599.56 113.91 607.91 113.78 616.29 113.37 624.91 113.17 633.73 113.16 642.57 112.79 651.58 112.55 660.76 112.47" stroke-dasharray="0 0" transform="rotate(119.625, 711, 400)" opacity="0.93"></path><path d="M682.54 165.86C690.65 165.4 698.99 165.09 707.56 164.93 716.16 164.47 725.03 164.21 734.15 164.16 743.35 163.9 752.84 163.91 762.64 164.2 772.55 164.38 782.81 164.9 793.38 165.79 804.11 166.66 815.18 167.94 826.57 169.65 838.1 171.41 849.92 173.65 861.98 176.34 874.11 179.15 886.39 182.45 898.72 186.21 910.96 190.13 923.1 194.52 934.99 199.35 946.54 204.35 957.62 209.78 968.03 215.61 977.81 221.6 986.66 227.96 994.41 234.66 1001.19 241.5 1006.62 248.64 1010.53 256.05 1013.26 263.56 1014.32 271.31 1013.63 279.25 1011.72 287.26 1008.08 295.44 1002.75 303.72 996.41 312.06 988.63 320.49 979.54 328.97 969.98 337.47 959.56 346 948.54 354.51 937.79 363.03 926.99 371.52 916.45 379.93 906.97 388.34 898.46 396.47 891.09 404.29 885.25 412.11 880.72 419.62 877.51 426.83 875.93 434.03 875.57 440.92 876.32 447.52 878.45 454.13 881.39 460.47 884.94 466.54 889.42 472.66 894.14 478.56 898.88 484.25 904.03 490.06 908.86 495.72 913.18 501.26 917.47 507 920.99 512.69 923.64 518.38 925.95 524.33 927.24 530.36 927.49 536.49 927.25 542.97 925.94 549.61 923.59 556.44 920.74 563.65 916.91 571.08 912.17 578.71 907 586.71 901.03 594.9 894.36 603.21 887.37 611.8 879.78 620.43 871.7 629.01 863.42 637.68 854.75 646.14 845.77 654.27 836.69 662.22 827.37 669.65 817.9 676.39 808.39 682.67 798.76 688.06 789.07 692.43 779.37 696.08 769.63 698.54 759.87 699.71 750.11 700 740.56 698.96 731.22 696.66 721.86 693.56 712.69 689.32 703.7 684.04 694.67 678.19 685.78 671.48 677.04 664.08 668.22 656.35 659.51 648.12 650.9 639.53 642.18 630.88 633.52 622.04 624.94 613.11 616.23 604.33 607.58 595.59 598.97 586.94 590.25 578.59 581.59 570.39 573 562.36 564.32 554.69 555.74 547.2 547.3 539.88 538.82 532.89 530.52 526.04 522.45 519.31 514.43 512.85 506.7 506.44 499.3 500.06 492.07 493.88 485.24 487.65 478.89 481.34 472.79 475.17 467.23 468.85 462.26 462.38 457.64 455.99 453.65 449.38 450.35 442.56 447.44 435.77 445.25 428.72 443.8 421.43 442.75 414.14 442.43 406.59 442.88 398.77 443.67 390.95 445.18 382.87 447.41 374.54 449.89 366.21 452.96 357.84 456.55 349.47 460.23 341.1 464.34 332.75 468.82 324.45 473.24 316.18 477.94 307.99 482.86 299.91 487.6 291.89 492.49 284 497.5 276.31 502.22 268.69 507.02 261.29 511.86 254.15 516.36 247.11 520.89 240.36 525.44 233.94 529.64 227.64 533.88 221.7 538.15 216.14 542.09 210.72 546.12 205.71 550.23 201.13 556.05 194.69 568.16 184.21 574.59 180.18 581.03 176.68 595.19 171.77 602.99 170.25 608.22 169.27 613.81 168.59 619.75 168.21 625.65 167.65 631.9 167.32 638.52 167.21 645.11 166.84 652.07 166.63 659.41 166.58 666.73 166.22 674.44 165.97 682.54 165.86" stroke-dasharray="0 0" transform="rotate(130.5, 711, 400)" opacity="0.32"></path><path d="M724.57 219.24C731.78 218.85 739.2 218.59 746.83 218.47 754.47 218.12 762.33 217.94 770.38 217.92 778.45 217.72 786.72 217.72 795.15 217.93 803.59 218.01 812.19 218.34 820.89 218.91 829.58 219.42 838.35 220.21 847.13 221.29 855.85 222.34 864.53 223.72 873.09 225.41 881.51 227.12 889.72 229.16 897.65 231.54 905.32 233.96 912.6 236.72 919.38 239.81 925.77 242.96 931.55 246.45 936.62 250.25 943.04 256.2 950.56 269.66 951.37 277.11 950.92 282.21 949.41 287.54 946.84 293.08 943.68 298.67 939.52 304.44 934.41 310.37 928.89 316.34 922.56 322.45 915.53 328.68 908.38 334.93 900.76 341.28 892.79 347.72 885.06 354.16 877.27 360.68 869.55 367.26 862.46 373.83 855.84 380.31 849.81 386.67 844.64 393.03 840.14 399.29 836.34 405.43 833.48 411.59 831.3 417.65 829.77 423.61 829.11 429.6 828.99 435.52 829.34 441.36 830.39 447.27 831.75 453.14 833.3 458.96 835.34 464.88 837.41 470.8 839.4 476.72 841.66 482.77 843.68 488.85 845.38 494.97 847.17 501.25 848.51 507.6 849.36 514 850.15 520.57 850.38 527.21 850.01 533.91 849.51 540.77 848.38 547.67 846.63 554.58 844.72 561.62 842.18 568.63 839.06 575.56 835.77 582.55 831.92 589.39 827.53 596.02 823.02 602.59 818.01 608.86 812.54 614.76 806.98 620.47 801.01 625.7 794.64 630.37 788.23 634.7 781.47 638.38 774.39 641.33 767.28 643.82 759.88 645.51 752.21 646.32 744.53 646.61 736.77 646 728.96 644.54 721.16 642.59 713.31 639.84 705.43 636.35 697.56 632.47 689.66 627.94 681.76 622.84 673.85 617.46 665.93 611.61 658.03 605.36 650.12 598.97 642.22 592.28 634.35 585.35 626.49 578.4 618.67 571.29 610.91 564.08 603.18 556.94 595.52 549.74 587.99 542.54 580.51 535.46 573.17 528.4 566.01 521.38 558.95 514.51 552.1 507.69 545.51 500.93 539.08 494.31 532.94 487.73 527.15 481.21 521.57 474.82 516.37 468.44 511.61 462.1 507.11 455.85 503.07 449.6 499.55 443.34 496.33 437.15 493.64 430.92 491.53 424.66 489.74 418.44 488.53 412.17 487.93 405.83 487.65 399.52 487.97 393.14 488.9 386.69 490.12 380.25 491.92 373.73 494.32 367.16 496.92 360.58 500.01 354.1 503.52 347.74 507.13 341.38 511.11 335.13 515.4 329.03 519.69 322.94 524.24 317 528.99 311.23 533.66 305.49 538.49 299.93 543.44 294.58 548.23 289.27 553.12 284.19 558.07 279.35 562.81 274.55 567.61 270.02 572.43 265.76 579.34 259.6 592.97 248.83 599.71 244.26 606.19 240.06 619.23 233.25 625.9 230.62 632.45 228.26 646.22 224.82 653.53 223.69 660.92 222.61 676.9 221.22 685.57 220.84 691.4 220.43 697.56 220.15 704.06 220.02 710.53 219.64 717.37 219.38 724.57 219.24" stroke-dasharray="0 0" transform="rotate(141.375, 711, 400)" opacity="0.77"></path><path d="M756.94 272.63C768.58 271.86 780.33 271.62 792.04 271.89 803.71 271.66 815.23 272.07 826.33 273.14 837.23 273.9 847.45 275.45 856.67 277.79 865.35 280 872.68 283.11 878.29 287.09 884.35 293.48 883.98 310.71 877.2 321.4 871.13 328.8 863.11 336.94 853.45 345.73 843.88 354.52 833.45 363.94 822.64 373.93 813.13 383.91 804.44 394.01 796.85 404.13 791.11 414.3 786.49 424.57 782.93 434.85 781.01 445.27 779.72 455.79 778.75 466.35 778.82 477.1 778.66 487.93 777.97 498.69 777.69 509.64 776.46 520.48 774.09 530.97 771.73 541.46 768.04 551.42 762.96 560.53 757.77 569.27 751.17 576.85 743.2 582.91 735.14 588.18 725.79 591.61 715.22 592.94 704.66 593.15 693.46 591.18 681.9 587.24 670.41 582.4 658.63 575.85 646.79 567.95 635.11 559.52 623.47 550.03 612.1 539.83 601.04 529.47 590.39 518.62 580.41 507.54 570.92 496.54 562.28 485.4 554.74 474.29 547.89 463.34 542.31 452.42 538.23 441.63 534.97 430.96 533.3 420.36 533.38 409.92 534.26 399.54 536.86 389.26 541.22 379.18 546.17 369.1 552.45 359.67 559.78 350.94 567.28 342.2 575.58 334.17 584.44 326.91 593.12 319.66 602.22 313.18 611.56 307.56 620.52 301.91 629.7 297.1 639.01 293.15 647.9 289.12 657 285.89 666.3 283.47 675.24 280.84 684.52 278.9 694.16 277.66 703.57 276.03 713.49 274.95 723.94 274.44 734.3 273.37 745.3 272.75 756.94 272.63" stroke-dasharray="0 0" transform="rotate(152.25, 711, 400)" opacity="0.54"></path><path d="M756.62 326.01C764.38 325.52 771.67 325.47 778.42 325.85 788.18 326.25 804.13 329.07 809.91 331.56 816.02 338.45 813.23 353.79 808.06 360.77 804.14 365.57 799.31 370.92 793.67 376.81 788.2 382.67 782.17 389.08 775.73 396.01 769.82 402.93 763.98 410.06 758.39 417.31 753.48 424.58 748.81 431.97 744.45 439.41 740.75 446.87 737.24 454.38 733.89 461.82 731.06 469.28 728.22 476.66 725.29 483.83 722.69 490.96 719.83 497.84 716.65 504.3 713.62 510.65 710.13 516.5 706.14 521.69 702.18 526.64 697.64 530.82 692.5 534.08 687.36 536.97 681.6 538.84 675.23 539.55 668.87 539.8 662.24 538.86 655.48 536.83 648.77 534.4 641.98 530.98 635.27 526.7 628.67 522.14 622.21 516.83 616.06 510.93 610.09 504.86 604.51 498.3 599.47 491.39 594.69 484.42 590.53 477.17 587.11 469.77 584.04 462.37 581.79 454.86 580.46 447.36 579.52 439.88 579.55 432.41 580.61 425.07 582.06 417.74 584.55 410.52 588.12 403.5 592.01 396.49 596.72 389.99 602.12 384.03 607.69 378.06 613.84 372.61 620.44 367.7 627.08 362.75 634.11 358.33 641.39 354.44 648.63 350.49 656.11 347.05 663.71 344.13 671.24 341.1 678.92 338.56 686.65 336.5 694.31 334.28 702.07 332.51 709.86 331.19 717.61 329.64 725.42 328.5 733.24 327.79 741.04 326.79 748.87 326.19 756.62 326.01" stroke-dasharray="0 0" transform="rotate(163.125, 711, 400)" opacity="0.20"></path></g></svg>