<svg xmlns="http://www.w3.org/2000/svg" version="1.1" xmlns:xlink="http://www.w3.org/1999/xlink" xmlns:svgjs="http://svgjs.dev/svgjs" viewBox="0 0 800 800"><defs><linearGradient x1="50%" y1="0%" x2="50%" y2="100%" id="ccchaos-grad"><stop stop-color="#06b6d4" stop-opacity="1" offset="0%"></stop><stop stop-color="#9333ea" stop-opacity="1" offset="100%"></stop></linearGradient></defs><g stroke-width="2" stroke="url(#ccchaos-grad)" fill="none" stroke-linecap="round"><path d="M390.67 128.17C400.32 127.2 410.42 125.78 420.96 124.06 431.55 121.72 442.64 119.52 454.22 117.7 465.9 115.98 478.11 115.1 490.8 115.22 503.59 116.03 516.85 118.08 530.46 121.38 544.07 125.53 557.9 130.86 571.75 137.23 585.3 144.22 598.57 151.99 611.27 160.34 623.19 168.89 634.08 177.72 643.61 186.67 651.78 195.41 658.14 204.08 662.38 212.6 664.89 220.69 665.08 228.56 662.89 236.23 659.15 243.43 653.34 250.48 645.76 257.43 637.64 264 628.7 270.59 619.58 277.26 611.66 283.67 604.88 290.28 599.95 297.12 598.01 303.82 598.97 310.85 603.21 318.22 611.15 325.53 622.38 333.23 636.56 341.33 653.29 349.4 671.59 357.89 690.46 366.82 709.01 375.73 725.91 385.08 739.95 394.87 750.56 404.67 756.45 414.7 757.39 424.94 753.93 435.21 745.82 445.71 733.73 456.42 718.67 467.16 701.21 478.13 682.39 489.28 663.21 500.45 644.45 511.78 626.92 523.17 611.29 534.49 597.95 545.78 587.16 556.9 579.21 567.77 573.87 578.26 570.87 588.2 570.35 597.59 571.5 606.16 573.82 613.71 590.99 630.34 575.35 626.44 564.09 628.71 555.76 632.63 546.65 638.19 536.96 645.37 527 654.3 516.65 664.34 506.04 675.03 495.33 686.09 484.49 696.62 473.6 705.91 462.69 713.69 451.79 719.04 440.93 721.48 430.07 721.27 419.5 717.96 409.2 711.87 398.87 703.87 388.75 694.08 378.82 683.21 368.79 672.17 358.86 661.27 349.01 651.08 338.98 642.29 328.95 634.92 318.88 629.11 308.6 625.25 298.22 622.88 287.75 621.76 277.08 622.12 266.32 623.12 255.51 624.39 244.61 626.15 233.73 627.5 222.99 628.13 212.34 628.39 201.98 627.5 192.04 625.37 182.46 622.42 173.49 618.14 165.26 612.6 157.64 606.23 150.92 598.75 145.17 590.34 140.14 581.33 136.13 571.61 133.13 561.39 130.73 550.83 129.22 539.97 128.53 528.96 128.08 517.82 128.17 506.65 128.7 495.56 128.99 484.45 129.42 473.46 129.85 462.67 129.64 451.89 129.24 441.31 128.6 430.96 127.16 420.62 125.46 410.5 123.58 400.62 121.09 390.74 118.69 381.31 116.54 372.33 114.28 363.33 112.59 354.75 111.62 346.59 111.04 338.38 111.44 330.55 112.88 323.08 115.02 315.51 118.3 308.25 122.68 301.26 127.78 294.09 133.89 287.09 140.88 280.23 148.36 273.07 156.5 265.93 165.12 258.75 173.87 251.18 182.86 243.47 191.94 235.6 200.78 227.29 209.54 218.79 218.14 210.13 226.25 201.13 234.14 192.07 241.8 183.04 248.91 173.96 255.83 165.15 262.6 156.78 268.88 148.75 275.12 141.46 281.4 135.08 287.3 129.42 293.35 124.87 299.63 121.56 305.65 119.06 312 117.77 318.72 117.62 325.29 117.99 332.29 119.19 339.78 121.04 347.18 122.76 355.1 124.64 363.57 126.46 372 127.49 381.02 128.09 390.66 128.18" stroke-dasharray="4 8" transform="rotate(0, 400, 400)" opacity="0.05"></path><path d="M402.73 139.58C412.28 138.64 422.27 137.27 432.69 135.62 443.16 133.34 454.08 131.18 465.43 129.33 476.85 127.52 488.7 126.47 500.92 126.32 513.17 126.76 525.72 128.36 538.44 131.13 551.04 134.69 563.64 139.41 576.04 145.17 588.02 151.57 599.5 158.8 610.19 166.69 620.04 174.86 628.73 183.42 635.96 192.2 641.91 200.91 646.08 209.63 648.25 218.29 648.95 226.63 647.59 234.81 644.19 242.82 639.65 250.42 633.47 257.87 625.98 265.2 618.37 272.16 610.35 279.09 602.51 286.04 596.09 292.71 590.99 299.5 587.82 306.46 587.5 313.25 589.91 320.29 595.32 327.61 604.04 334.84 615.64 342.41 629.77 350.34 646.05 358.22 663.59 366.5 681.48 375.19 698.97 383.85 714.86 392.94 728.1 402.47 738.21 412 744.01 421.75 745.29 431.71 742.56 441.69 735.54 451.87 724.76 462.23 711.14 472.61 695.11 483.15 677.57 493.79 659.43 504.42 641.35 515.09 624.08 525.72 608.25 536.22 594.27 546.55 582.45 556.59 573.07 566.3 566.04 575.52 561.21 584.08 558.32 595.65 561.85 612.72 565.97 617.71 574.03 617.66 562.93 615.28 553.96 618.93 547.19 623.59 539.56 629.72 531.23 637.24 522.62 646.24 513.48 656.13 503.92 666.46 494.23 677 484.25 686.92 474.06 695.59 463.84 702.83 453.47 707.8 442.98 710.07 432.49 709.92 422.14 706.9 411.92 701.31 401.69 693.91 391.56 684.79 381.51 674.54 371.39 664.01 361.3 653.45 351.21 643.38 341.01 634.44 330.75 626.67 320.43 620.26 309.97 615.58 299.43 612.29 288.81 610.22 278.09 609.59 267.33 609.72 256.58 610.29 245.85 611.53 235.23 612.6 224.81 613.22 214.6 613.73 204.76 613.36 195.4 611.97 186.49 609.99 178.23 606.84 170.74 602.55 163.89 597.55 157.93 591.47 152.94 584.45 148.63 576.84 145.28 568.47 142.9 559.49 141.04 550.13 140 540.36 139.7 530.31 139.57 520.07 139.92 509.7 140.62 499.29 141.05 488.82 141.54 478.38 142 468.06 141.81 457.73 141.38 447.54 140.69 437.53 139.19 427.54 137.42 417.72 135.43 408.11 132.83 398.5 130.31 389.31 127.99 380.54 125.54 371.74 123.63 363.32 122.4 355.27 121.52 347.17 121.58 339.39 122.65 331.91 124.39 324.31 127.23 316.95 131.16 309.78 135.82 302.43 141.49 295.18 148.06 287.99 155.18 280.51 163 273.01 171.37 265.43 179.95 257.5 188.86 249.43 197.94 241.22 206.89 232.65 215.84 223.94 224.69 215.15 233.17 206.14 241.47 197.16 249.57 188.32 257.18 179.55 264.6 171.14 271.87 163.27 278.66 155.81 285.38 149.14 292.07 143.41 298.39 138.4 304.79 134.48 311.34 131.73 317.62 129.73 324.15 128.84 330.99 128.99 337.66 129.57 344.71 130.89 352.2 132.76 359.58 134.46 367.46 136.28 375.86 138.01 384.22 138.97 393.16 139.52 402.72 139.59" stroke-dasharray="3 9" transform="rotate(4.04, 400, 400)" opacity="0.09"></path><path d="M414.56 150.99C424 150.08 433.82 148.77 444.01 147.18 454.23 144.98 464.83 142.86 475.77 141.01 486.73 139.14 498 137.94 509.5 137.55 520.96 137.66 532.55 138.83 544.12 141.09 555.49 144.09 566.65 148.2 577.42 153.32 587.7 159.1 597.29 165.73 605.96 173.07 613.78 180.78 620.36 188.95 625.47 197.45 629.43 205.98 631.7 214.63 632.16 223.3 631.43 231.76 628.93 240.14 624.75 248.39 619.8 256.31 613.62 264.1 606.56 271.77 599.71 279.11 592.81 286.39 586.38 293.64 581.51 300.62 578.07 307.66 576.55 314.8 577.73 321.77 581.44 328.91 587.85 336.27 597.18 343.52 609.02 351.05 622.99 358.89 638.76 366.66 655.52 374.79 672.43 383.27 688.88 391.74 703.79 400.59 716.25 409.84 725.86 419.09 731.55 428.53 733.13 438.13 731.07 447.74 725.05 457.51 715.53 467.4 703.3 477.28 688.69 487.24 672.47 497.23 655.44 507.15 638.18 517.02 621.38 526.74 605.6 536.27 591.25 545.54 578.67 554.39 568.15 562.89 559.69 570.81 553.23 578.02 554.41 602.33 547.85 604.72 540.8 609.63 535.38 614.92 529.08 621.51 521.98 629.27 514.64 638.26 506.66 647.93 498.13 657.85 489.47 667.84 480.38 677.15 470.93 685.23 461.45 691.95 451.66 696.55 441.62 698.66 431.59 698.57 421.54 695.83 411.51 690.7 401.48 683.89 391.43 675.42 381.38 665.81 371.29 655.82 361.16 645.65 350.98 635.78 340.73 626.79 330.41 618.75 320.01 611.85 309.55 606.48 299.02 602.35 288.45 599.38 277.87 597.8 267.3 597.03 256.81 596.82 246.43 597.39 236.24 598.01 226.33 598.41 216.71 598.91 207.52 598.78 198.88 597.87 190.72 596.58 183.26 594.31 176.59 591.04 170.55 587.2 165.38 582.36 161.16 576.61 157.56 570.33 154.87 563.25 153.08 555.51 151.73 547.4 151.12 538.78 151.17 529.78 151.31 520.56 151.86 511.09 152.7 501.48 153.21 491.78 153.75 482.02 154.21 472.28 153.99 462.52 153.52 452.82 152.76 443.22 151.21 433.63 149.36 424.16 147.29 414.85 144.6 405.53 141.96 396.58 139.5 387.97 136.89 379.35 134.79 371.05 133.31 363.05 132.15 354.99 131.88 347.19 132.57 339.63 133.9 331.94 136.3 324.42 139.75 317.03 143.93 309.45 149.11 301.93 155.2 294.41 161.88 286.63 169.3 278.8 177.33 270.88 185.65 262.66 194.36 254.32 203.33 245.88 212.28 237.17 221.31 228.4 230.31 219.62 239.05 210.73 247.67 201.97 256.13 193.46 264.2 185.11 272.09 177.21 279.82 169.91 287.13 163.09 294.34 157.09 301.49 152.02 308.27 147.66 315.09 144.34 322 142.13 328.63 140.6 335.45 140.07 342.51 140.48 349.39 141.25 356.59 142.65 364.16 144.52 371.62 146.18 379.53 147.92 387.91 149.56 396.25 150.45 405.11 150.95 414.55 150.99" stroke-dasharray="2 2" transform="rotate(8.08, 400, 400)" opacity="0.13"></path><path d="M425.25 162.4C434.52 161.52 444.09 160.27 453.93 158.75 463.79 156.65 473.92 154.59 484.27 152.74 494.61 150.84 505.12 149.52 515.7 148.92 526.18 148.74 536.62 149.52 546.88 151.3 556.86 153.75 566.48 157.25 575.53 161.73 584.07 166.86 591.8 172.86 598.52 179.59 604.44 186.74 609.1 194.44 612.36 202.53 614.62 210.76 615.35 219.2 614.49 227.75 612.72 236.19 609.48 244.63 604.92 253 599.94 261.13 594.1 269.17 587.73 277.1 581.86 284.76 576.23 292.34 571.27 299.87 567.95 307.16 566.11 314.46 566.14 321.81 568.67 328.99 573.51 336.28 580.76 343.73 590.56 351.06 602.5 358.61 616.23 366.4 631.43 374.13 647.36 382.14 663.31 390.44 678.74 398.73 692.7 407.35 704.39 416.29 713.52 425.24 719.08 434.32 720.92 443.5 719.46 452.68 714.38 461.95 706.04 471.25 695.16 480.54 681.94 489.82 667.05 499.02 651.21 508.14 634.89 517.1 618.72 525.81 603.21 534.32 588.75 542.46 575.69 550.1 564.32 557.41 554.69 564.08 546.84 570.01 535.61 588.81 536.79 589.61 534.5 590.85 532.37 593.12 529.28 596.4 525.24 600.78 520.91 606.61 515.71 613.53 509.7 621.43 503.47 630.33 496.53 639.71 488.97 649.19 481.29 658.63 473.07 667.34 464.38 674.83 455.65 681.05 446.5 685.29 436.98 687.25 427.46 687.2 417.81 684.73 408.07 680.05 398.34 673.81 388.5 665.97 378.58 657 368.66 647.58 358.64 637.85 348.53 628.25 338.41 619.32 328.19 611.12 317.91 603.86 307.63 597.91 297.3 593.05 286.98 589.26 276.73 586.77 266.55 585.11 256.51 584.07 246.66 583.88 237.06 583.91 227.81 583.91 218.91 584.18 210.5 584.05 202.67 583.36 195.36 582.49 188.75 580.82 182.94 578.32 175.55 573.5 165.96 558.9 163.69 549.4 162.8 542.49 162.58 535.01 162.92 527.08 163.29 518.92 164 510.43 164.92 501.7 165.48 492.85 166.02 483.85 166.44 474.77 166.19 465.66 165.66 456.52 164.83 447.4 163.21 438.28 161.3 429.21 159.14 420.21 156.38 411.21 153.65 402.49 151.08 394.06 148.33 385.6 146.05 377.39 144.36 369.42 142.94 361.38 142.36 353.54 142.67 345.86 143.59 338.07 145.53 330.38 148.49 322.76 152.15 314.97 156.81 307.19 162.37 299.39 168.55 291.37 175.49 283.28 183.08 275.11 191.04 266.71 199.45 258.23 208.2 249.7 217.02 241 226 232.3 235.04 223.68 243.92 215.06 252.75 206.65 261.47 198.58 269.89 190.76 278.17 183.45 286.3 176.8 294.08 170.65 301.75 165.33 309.34 160.94 316.61 157.22 323.86 154.49 331.15 152.78 338.18 151.67 345.34 151.47 352.66 152.11 359.81 153.01 367.22 154.47 374.92 156.32 382.52 157.93 390.48 159.58 398.85 161.12 407.18 161.93 415.96 162.38 425.24 162.4" stroke-dasharray="1 9" transform="rotate(12.12, 400, 400)" opacity="0.16"></path><path d="M433.94 173.81C442.98 172.97 452.21 171.78 461.61 170.34 471 168.32 480.54 166.34 490.16 164.52 499.74 162.61 509.34 161.2 518.86 160.42 528.25 159.98 537.44 160.41 546.29 161.74 554.84 163.68 562.88 166.59 570.25 170.45 577.1 174.92 583.08 180.24 588.02 186.32 592.25 192.86 595.28 199.98 596.99 207.57 597.9 215.37 597.46 223.47 595.68 231.76 593.26 240.05 589.68 248.4 585.11 256.75 580.41 264.96 575.18 273.12 569.74 281.2 565.01 289.08 560.72 296.88 557.27 304.63 555.46 312.18 555.12 319.71 556.57 327.25 560.29 334.63 566.1 342.08 574.01 349.62 584.13 357.05 596.05 364.64 609.45 372.39 624.02 380.09 639.13 388 654.11 396.13 668.54 404.25 681.59 412.62 692.54 421.24 701.18 429.86 706.6 438.53 708.65 447.23 707.75 455.93 703.53 464.62 696.29 473.28 686.69 481.89 674.82 490.42 661.27 498.77 646.67 507.03 631.4 515.03 616 522.71 600.96 530.18 586.64 537.21 573.36 543.71 561.42 549.88 550.92 555.42 541.94 560.23 519.91 575.07 517.53 577.82 515.6 580.33 513.93 583.39 511.43 587.39 508.09 592.37 504.56 598.61 500.2 605.77 495.06 613.7 489.75 622.43 483.72 631.47 477.02 640.48 470.21 649.35 462.81 657.46 454.86 664.38 446.86 670.12 438.37 674.03 429.42 675.84 420.46 675.84 411.29 673.61 401.94 669.36 392.6 663.66 383.1 656.45 373.46 648.11 363.84 639.27 354.08 630.03 344.23 620.76 334.39 611.98 324.47 603.73 314.5 596.23 304.58 589.83 294.66 584.37 284.78 579.85 275.04 576.53 265.42 574.01 256.01 572.14 246.84 571.16 237.99 570.49 229.53 569.95 221.47 569.83 213.92 569.48 206.99 568.77 197.71 567.4 183.75 560.99 179.22 555.72 176.23 549.19 174.31 532.23 174.95 522.13 175.49 515.01 176.3 507.49 177.27 499.65 177.84 491.69 178.34 483.49 178.7 475.13 178.38 466.71 177.78 458.18 176.87 449.59 175.19 440.99 173.22 432.35 170.99 423.7 168.18 415.05 165.38 406.59 162.71 398.33 159.86 390.05 157.44 381.94 155.54 373.99 153.89 365.99 153.01 358.11 152.97 350.33 153.48 342.45 154.97 334.62 157.42 326.81 160.55 318.87 164.65 310.9 169.65 302.9 175.26 294.73 181.65 286.5 188.73 278.22 196.23 269.78 204.24 261.3 212.64 252.82 221.21 244.27 230.02 235.8 238.95 227.49 247.83 219.27 256.73 211.34 265.58 203.82 274.23 196.61 282.78 189.96 291.22 184 299.38 178.56 307.44 173.93 315.4 170.21 323.1 167.09 330.75 164.91 338.4 163.67 345.83 162.94 353.31 163.02 360.91 163.85 368.35 164.86 375.96 166.34 383.8 168.15 391.54 169.69 399.57 171.24 407.91 172.67 416.21 173.41 424.88 173.81 433.92 173.81" stroke-dasharray="11 2" transform="rotate(16.16, 400, 400)" opacity="0.20"></path><path d="M439.94 185.22C448.69 184.41 457.51 183.29 466.36 181.93 475.2 180.02 484.05 178.11 492.84 176.35 501.58 174.45 510.19 172.98 518.58 172.06 526.81 171.4 534.71 171.51 542.15 172.45 549.29 173.9 555.82 176.26 561.62 179.5 566.94 183.31 571.36 187.96 574.77 193.36 577.58 199.23 579.28 205.71 579.8 212.71 579.72 219.99 578.5 227.62 576.18 235.52 573.48 243.5 569.91 251.62 565.65 259.82 561.52 267.95 557.13 276.08 552.78 284.18 549.27 292.15 546.37 300.07 544.4 307.94 544.03 315.65 545.09 323.33 547.8 331 552.55 338.54 559.15 346.1 567.57 353.7 577.87 361.22 589.67 368.82 602.64 376.52 616.55 384.18 630.8 391.98 644.83 399.92 658.3 407.85 670.45 415.95 680.69 424.21 688.85 432.48 694.11 440.71 696.33 448.89 695.92 457.06 692.49 465.14 686.29 473.1 677.9 481.01 667.35 488.74 655.13 496.23 641.79 503.61 627.63 510.68 613.14 517.36 598.75 523.84 584.77 529.84 571.53 535.3 559.29 540.48 548.2 545.03 538.38 548.91 526.39 553.92 510.56 560.1 506 561.48 500.67 564.82 494.27 576.59 490.22 584.36 487.18 590.89 483.41 598.18 478.92 606.05 474.3 614.55 469 623.2 463.02 631.71 456.96 640 450.29 647.52 443.02 653.9 435.72 659.17 427.88 662.76 419.53 664.43 411.17 664.47 402.54 662.48 393.67 658.63 384.83 653.45 375.77 646.84 366.55 639.13 357.37 630.89 348.03 622.16 338.59 613.29 329.22 604.74 319.76 596.55 310.28 588.92 300.91 582.2 291.56 576.26 282.31 571.14 273.24 567.08 264.34 563.77 255.7 561.1 247.35 559.3 239.35 557.9 231.79 556.73 221.32 555.7 204.1 553.02 197.62 550.69 192.63 547.61 187.03 537.92 186.23 531.28 186.11 526.41 186.47 520.96 187.24 514.99 187.9 508.84 188.76 502.23 189.73 495.26 190.26 488.17 190.7 480.77 190.97 473.12 190.58 465.43 189.89 457.54 188.89 449.49 187.16 441.44 185.12 433.26 182.85 424.99 180 416.72 177.15 408.55 174.41 400.49 171.48 392.42 168.93 384.44 166.87 376.55 165 368.62 163.85 360.74 163.48 352.91 163.6 345 164.64 337.1 166.59 329.2 169.18 321.19 172.69 313.14 177.09 305.07 182.09 296.87 187.89 288.64 194.38 280.38 201.33 272.04 208.83 263.72 216.78 255.46 224.98 247.22 233.47 239.12 242.16 231.25 250.9 223.54 259.72 216.2 268.56 209.31 277.29 202.78 285.97 196.84 294.58 191.59 303 186.86 311.32 182.92 319.56 179.83 327.6 177.3 335.57 175.63 343.51 174.8 351.26 174.41 359.04 174.73 366.85 175.7 374.55 176.78 382.34 178.26 390.28 180.01 398.14 181.47 406.19 182.91 414.45 184.23 422.69 184.9 431.18 185.24 439.93 185.22" stroke-dasharray="11 2" transform="rotate(20.200000000000003, 400, 400)" opacity="0.24"></path><path d="M442.79 196.63C451.18 195.86 459.51 194.8 467.75 193.53 475.97 191.72 484.07 189.91 491.98 188.21 499.83 186.35 507.42 184.85 514.68 183.82 521.77 182.98 528.42 182.83 534.54 183.4 542.95 185.33 555.48 194.08 559.21 200.77 560.92 205.94 561.63 211.74 561.33 218.08 560.62 224.74 558.98 231.81 556.49 239.21 553.85 246.75 550.6 254.5 546.92 262.39 543.57 270.29 540.18 278.25 537.02 286.23 534.79 294.13 533.27 302.03 532.71 309.89 533.67 317.65 535.98 325.38 539.79 333.08 545.4 340.68 552.62 348.28 561.39 355.89 571.73 363.42 583.3 370.99 595.79 378.61 608.99 386.18 622.39 393.83 635.48 401.55 648 409.27 659.29 417.07 668.83 424.94 676.53 432.82 681.61 440.59 683.97 448.22 683.99 455.84 681.28 463.3 676.04 470.55 668.79 477.76 659.5 484.72 648.57 491.37 636.51 497.92 623.53 504.11 610.04 509.87 596.44 515.46 583 520.57 570.03 525.13 557.76 529.49 546.36 533.26 535.98 536.42 526.72 539.38 518.57 541.74 511.52 543.52 497.62 547.09 486.2 550.92 483.91 552.98 481.95 556.6 476.5 568.32 472.57 576.7 469.74 583.42 466.29 590.72 462.22 598.46 458.07 606.65 453.3 614.88 447.9 622.86 442.43 630.58 436.37 637.52 429.73 643.37 423.06 648.2 415.84 651.49 408.09 653.02 400.35 653.09 392.29 651.32 383.99 647.85 375.71 643.17 367.2 637.14 358.52 630.05 349.9 622.42 341.12 614.23 332.26 605.81 323.48 597.57 314.64 589.53 305.82 581.89 297.13 574.97 288.51 568.68 280.03 563.08 271.77 558.4 263.71 554.39 255.96 550.99 248.51 548.41 241.44 546.26 234.84 544.42 225.8 542.5 211.34 538.88 206.13 536.55 200.31 529.65 198.59 513.43 199.76 505.92 200.48 500.61 201.34 494.83 202.26 488.64 202.73 482.36 203.08 475.71 203.24 468.77 202.75 461.77 201.97 454.51 200.89 447.03 199.1 439.53 197.02 431.83 194.7 423.97 191.83 416.1 188.95 408.25 186.18 400.44 183.19 392.62 180.54 384.82 178.34 377.04 176.29 369.24 174.89 361.44 174.21 353.65 173.96 345.8 174.56 337.93 176.03 330.04 178.07 322.08 181 314.08 184.78 306.06 189.14 297.99 194.29 289.9 200.14 281.83 206.47 273.75 213.38 265.73 220.77 257.84 228.47 250.04 236.53 242.44 244.84 235.13 253.28 228.05 261.87 221.36 270.54 215.18 279.19 209.36 287.85 204.16 296.47 199.64 304.98 195.6 313.43 192.32 321.81 189.84 330.05 187.85 338.23 186.63 346.34 186.17 354.33 186.06 362.29 186.58 370.25 187.65 378.12 188.77 386.02 190.22 393.99 191.89 401.9 193.25 409.91 194.58 418.04 195.79 426.14 196.37 434.39 196.67 442.78 196.63" stroke-dasharray="3 9" transform="rotate(24.24, 400, 400)" opacity="0.28"></path><path d="M442.26 208.04C450.22 207.31 458 206.32 465.59 205.13 473.15 203.44 480.47 201.73 487.5 200.11 494.46 198.3 501.07 196.8 507.24 195.7 516.03 194.53 530.38 195.91 535.62 198.71 539.6 202.95 542.86 215.63 542.13 223.82 541.14 229.8 539.43 236.22 537.09 243.02 534.79 250.01 532.11 257.26 529.21 264.71 526.79 272.23 524.5 279.87 522.58 287.58 521.63 295.27 521.43 303 522.19 310.71 524.35 318.37 527.75 326.02 532.49 333.64 538.79 341.2 546.47 348.73 555.44 356.25 565.7 363.72 576.94 371.18 588.88 378.64 601.35 386.08 613.88 393.52 626.05 400.98 637.66 408.43 648.11 415.9 656.98 423.36 664.21 430.83 669.11 438.12 671.56 445.2 671.95 452.27 669.9 459.11 665.54 465.68 659.36 472.21 651.27 478.45 641.61 484.33 630.81 490.13 619.03 495.54 606.62 500.51 593.95 505.35 581.21 509.72 568.7 513.59 556.64 517.3 545.2 520.5 534.53 523.17 524.73 525.73 515.84 527.81 507.89 529.43 497.87 531.7 483.13 535.14 477.81 536.87 473.78 539.43 466.99 547.2 463.59 552.94 461.42 557.8 458.92 563.28 456.01 569.36 453.15 576.15 449.8 583.38 445.93 590.9 442.04 598.73 437.61 606.49 432.62 613.95 427.6 621.09 422.04 627.46 415.94 632.81 409.81 637.21 403.16 640.21 396.02 641.61 388.88 641.71 381.43 640.15 373.74 637.04 366.07 632.82 358.19 627.36 350.15 620.88 342.18 613.85 334.07 606.23 325.9 598.3 317.84 590.43 309.75 582.63 301.71 575.09 293.82 568.1 286.04 561.59 278.45 555.63 271.07 550.45 263.95 545.85 257.15 541.8 250.66 538.51 244.56 535.64 238.94 533.12 225.44 527.79 212.63 519.95 210.97 516.44 210.23 512.43 211.19 501.87 212.48 495.32 213.62 488.14 215.35 471.53 215.51 462.25 214.91 455.9 214.03 449.25 212.86 442.31 211.02 435.37 208.9 428.16 206.56 420.72 203.68 413.29 200.8 405.8 198 398.28 194.98 390.76 192.27 383.2 189.95 375.62 187.75 368.02 186.14 360.39 185.17 352.73 184.59 345.05 184.78 337.32 185.77 329.57 187.29 321.8 189.64 313.99 192.79 306.19 196.5 298.37 200.97 290.58 206.13 282.85 211.78 275.17 218.02 267.61 224.78 260.22 231.88 252.98 239.37 245.99 247.18 239.34 255.18 232.94 263.39 226.98 271.73 221.54 280.14 216.47 288.6 211.99 297.07 208.19 305.51 204.82 313.93 202.16 322.28 200.24 330.57 198.73 338.8 197.91 346.96 197.77 355.03 197.89 363.07 198.55 371.05 199.69 378.98 200.82 386.89 202.22 394.79 203.79 402.66 205.04 410.55 206.26 418.45 207.35 426.35 207.85 434.29 208.1 442.25 208.04" stroke-dasharray="3 5" transform="rotate(28.28, 400, 400)" opacity="0.32"></path><path d="M438.39 219.45C445.86 218.76 453.07 217.83 459.99 216.73 466.88 215.16 473.44 213.57 479.62 212.04 488.59 209.56 503.98 206.33 510.17 206.05 518.79 209.54 523.85 222.93 522.83 230.04 521.85 235.3 520.35 241.02 518.43 247.14 516.7 253.49 514.77 260.14 512.81 267.03 511.4 274.05 510.26 281.24 509.58 288.53 509.85 295.87 510.88 303.27 512.83 310.69 516.03 318.12 520.35 325.54 525.83 332.95 532.66 340.33 540.62 347.69 549.65 355.01 559.72 362.3 570.56 369.57 581.89 376.8 593.61 384.02 605.28 391.2 616.54 398.34 627.26 405.48 636.91 412.58 645.13 419.62 651.9 426.65 656.59 433.45 659.12 440 659.83 446.53 658.35 452.79 654.8 458.74 649.61 464.66 642.66 470.24 634.2 475.46 624.65 480.61 614.08 485.37 602.81 489.71 591.14 493.96 579.24 497.78 567.38 501.13 555.74 504.41 544.5 507.24 533.8 509.64 523.75 512.01 514.41 514.01 505.83 515.67 498.05 517.42 491.03 518.95 484.72 520.33 476.7 522.82 464.11 528.93 459 533.06 454.62 538.6 446.02 553.21 441.37 562.28 438.27 569.04 434.82 576.11 430.99 583.34 427.16 590.76 422.91 598.04 418.2 604.94 413.48 611.52 408.29 617.34 402.63 622.2 396.96 626.2 390.83 628.92 384.26 630.2 377.69 630.33 370.85 628.96 363.8 626.18 356.78 622.41 349.57 617.49 342.24 611.6 334.98 605.17 327.62 598.13 320.24 590.72 312.96 583.28 305.7 575.8 298.53 568.45 291.52 561.51 284.65 554.9 278 548.72 271.56 543.18 265.41 538.12 259.6 533.54 251.5 527.86 238.05 519.11 232.87 515.59 224.42 504.39 224.05 489.57 225.37 483.69 226.42 477.3 227.8 462.4 227.74 453.98 227.03 448.21 226.05 442.11 224.8 435.7 222.91 429.27 220.77 422.55 218.41 415.56 215.55 408.57 212.68 401.47 209.88 394.3 206.86 387.13 204.11 379.88 201.71 372.58 199.38 365.28 197.58 357.91 196.38 350.51 195.48 343.1 195.3 335.64 195.84 328.17 196.85 320.71 198.64 313.24 201.18 305.79 204.23 298.38 208.01 291.03 212.46 283.78 217.38 276.63 222.91 269.64 228.95 262.87 235.37 256.28 242.21 249.98 249.4 244.05 256.83 238.39 264.52 233.19 272.39 228.5 280.38 224.16 288.49 220.4 296.64 217.28 304.84 214.54 313.04 212.45 321.21 211.02 329.37 209.94 337.48 209.46 345.53 209.58 353.55 209.88 361.5 210.64 369.38 211.8 377.23 212.91 385.02 214.24 392.75 215.7 400.47 216.83 408.13 217.93 415.74 218.9 423.35 219.33 430.9 219.52 438.38 219.45" stroke-dasharray="10 3" transform="rotate(32.32, 400, 400)" opacity="0.35"></path><path d="M431.48 230.86C438.43 230.21 445.05 229.35 451.3 228.34 460.46 226.16 476.59 221.63 483.43 219.77 499 220.12 504.86 230.81 503.97 236.85 502.75 243.87 499.39 260.4 497.92 269.64 497.56 276.04 497.56 282.65 498.06 289.42 499.46 296.26 501.59 303.21 504.57 310.22 508.66 317.26 513.72 324.33 519.77 331.39 526.94 338.46 535.05 345.52 544.01 352.54 553.79 359.55 564.13 366.53 574.83 373.44 585.76 380.36 596.57 387.21 606.95 393.99 616.81 400.76 625.69 407.46 633.27 414.05 639.59 420.64 644.07 426.96 646.63 433 647.62 439.02 646.65 444.75 643.84 450.15 639.56 455.53 633.65 460.56 626.35 465.24 618.01 469.87 608.65 474.13 598.53 478 587.93 481.82 576.98 485.25 565.91 488.29 554.89 491.31 544.06 493.97 533.58 496.28 523.53 498.64 514.01 500.73 505.08 502.58 496.78 504.59 489.1 506.48 482.04 508.31 475.62 510.46 469.74 512.67 464.36 515.05 457.27 519.45 445.15 530.75 439.68 537.86 436.3 543.33 432.85 549.2 429.27 555.41 425.82 562.05 422.14 568.88 418.2 575.76 414.3 582.74 410.09 589.5 405.53 595.85 400.98 601.87 396.06 607.16 390.76 611.55 385.46 615.17 379.78 617.63 373.74 618.79 367.7 618.94 361.46 617.74 355.05 615.28 348.67 611.94 342.16 607.53 335.58 602.21 329.05 596.37 322.48 589.93 315.93 583.06 309.48 576.1 303.09 569.01 296.83 561.94 290.72 555.14 284.78 548.56 279.09 542.29 273.6 536.52 268.4 531.13 263.56 526.14 256.87 519.68 246.06 509.17 242.08 504.82 236.35 491.91 237.12 477.08 238.38 471.63 239.29 465.78 240.23 452.2 239.95 444.5 239.12 439.22 238.04 433.61 236.7 427.68 234.78 421.74 232.62 415.5 230.26 408.95 227.43 402.41 224.59 395.74 221.82 388.97 218.82 382.2 216.05 375.33 213.6 368.39 211.19 361.46 209.24 354.46 207.83 347.42 206.67 340.4 206.14 333.34 206.28 326.28 206.81 319.25 208.06 312.24 210 305.28 212.41 298.4 215.5 291.6 219.24 284.96 223.42 278.43 228.19 272.1 233.48 266.03 239.15 260.16 245.26 254.6 251.74 249.43 258.49 244.53 265.54 240.08 272.81 236.13 280.25 232.5 287.84 229.42 295.53 226.93 303.3 224.76 311.13 223.18 318.95 222.19 326.81 221.46 334.64 221.27 342.42 221.58 350.2 222.01 357.92 222.83 365.55 223.98 373.18 225.04 380.73 226.27 388.17 227.61 395.61 228.63 402.96 229.59 410.18 230.45 417.41 230.8 424.52 230.95 431.47 230.86" stroke-dasharray="11 8" transform="rotate(36.36, 400, 400)" opacity="0.39"></path><path d="M422.09 242.27C431.5 241.26 448.36 237.95 455.7 235.96 468.75 231.6 484.05 230.35 486.19 235.35 486.95 240.62 486.32 247.98 484.94 257.06 484.96 267.1 485.67 278.42 488.04 290.57 493.69 303.17 502.3 316.23 514.22 329.41 529.75 342.73 547.96 356.02 567.65 369.05 577.8 375.58 587.76 382.04 597.28 388.4 606.31 394.77 614.44 401.04 621.42 407.18 627.3 413.32 631.55 419.18 634.11 424.75 635.32 430.31 634.8 435.56 632.64 440.5 624.5 450.32 610.99 458.82 593.72 465.96 574.37 473.04 553.85 478.86 533.6 483.57 514.36 488.64 496.77 493.14 481.19 497.49 467.64 503.1 455.89 509.39 445.58 516.76 436.7 526.13 428.41 536.86 420.23 548.71 412.6 561.79 404.42 574.82 395.4 586.67 390.92 592.13 386.17 596.92 381.16 600.86 373.51 605.22 356.9 607.03 348.27 604.35 342.51 601.4 336.69 597.47 330.84 592.71 319.3 581.79 307.9 568.98 297.05 555.48 286.72 542.64 277.31 530.51 269.23 519.55 261.96 510.42 256.29 502.45 252.45 495.37 249.35 489.68 247.97 484.14 248.2 478.34 248.45 473.07 249.67 466.94 251.48 459.75 252.08 452.59 252.4 444.16 252.11 434.45 250.58 426.99 245.54 410.51 242.12 401.52 239.33 395.43 236.54 389.2 233.81 382.87 230.85 376.54 228.11 370.11 225.63 363.62 220.78 350.66 217.83 337.49 217.08 324.36 217.68 311.43 220.91 298.75 226.58 286.69 233.86 275.18 243.31 264.67 254.44 255.61 266.69 247.55 280.08 241.29 294.1 237.14 308.63 234.06 323.41 232.97 338.07 233.75 352.89 234.79 367.46 236.87 381.53 239.52 388.59 240.41 395.52 241.25 402.28 241.99 409.06 242.27 415.67 242.37 422.08 242.27" stroke-dasharray="7 1" transform="rotate(40.400000000000006, 400, 400)" opacity="0.43"></path><path d="M410.95 253.68C422.64 252.08 432.76 250.06 441.19 247.94 459.46 242.77 470.26 252.5 470.73 263.17 472.47 271.71 475.14 281.57 479.49 292.34 486.73 303.6 496.56 315.44 509.1 327.51 524.53 339.78 541.98 352.1 560.37 364.21 578.98 376.37 595.98 388.26 609.57 399.65 619.38 411.03 623.25 421.32 621.23 430.45 614.73 439.53 603.33 447.45 588.33 454.21 571.19 461.02 552.54 466.86 533.64 471.9 515.18 477.42 497.75 482.66 481.86 487.96 467.47 494.47 454.63 501.69 443.17 509.86 432.96 519.67 423.51 530.53 414.48 542.12 406.02 554.52 397.39 566.61 388.37 577.39 379.45 586.82 369.87 593.32 359.6 595.97 349.33 595.56 338.91 591.02 328.6 583.1 318.44 573.32 308.63 561.62 299.52 549.03 290.82 536.75 283.11 524.8 276.71 513.66 270.93 503.96 266.62 495.21 263.95 487.29 261.75 480.63 261 474.27 261.59 467.89 261.97 462.1 263.09 455.76 264.61 448.63 264.89 441.65 264.84 433.64 264.21 424.55 261.61 415.45 258.15 405.23 253.97 393.94 248.19 382.65 242.64 370.88 237.8 358.87 232.87 346.93 229.61 334.86 228.28 322.92 228.06 311.23 230.19 299.91 234.56 289.3 240.36 279.25 248.23 270.26 257.76 262.7 268.38 256.02 280.22 251.02 292.8 247.91 305.98 245.63 319.52 245.06 333.05 246.08 346.83 247.14 360.41 249.06 373.48 251.43 386.66 252.61 399.24 253.43 410.94 253.68" stroke-dasharray="6 4" transform="rotate(44.44, 400, 400)" opacity="0.47"></path><path d="M398.94 265.09C409.55 263.62 418.65 261.82 426.2 259.93 442.99 254.77 455.77 261.47 458.54 270.18 461.92 277.27 466.34 285.66 472.35 295 480.84 304.84 491.51 315.34 504.34 326.18 519.41 337.24 535.94 348.45 552.96 359.54 569.95 370.69 585.36 381.64 597.71 392.14 606.83 402.65 610.79 412.18 609.61 420.69 604.58 429.2 595.14 436.73 582.33 443.33 567.4 450.07 550.74 456.1 533.45 461.61 516.15 467.66 499.37 473.63 483.65 479.8 468.96 487.07 455.52 494.99 443.34 503.7 432.15 513.7 421.8 524.45 412.08 535.58 402.89 547.19 393.84 558.28 384.78 568 375.84 576.44 366.61 582.21 357.09 584.56 347.58 584.27 338.22 580.35 329.22 573.37 320.32 564.69 311.97 554.12 304.41 542.53 297.17 530.98 290.95 519.43 285.99 508.38 281.44 498.39 278.24 489.13 276.46 480.59 274.91 473.12 274.58 466.02 275.31 459.05 275.67 452.69 276.57 446.01 277.72 438.83 277.64 431.84 277.21 424.08 276.24 415.47 273.48 406.87 269.96 397.35 265.82 386.92 260.22 376.5 254.85 365.71 250.09 354.78 245.17 343.92 241.68 333.05 239.88 322.42 238.94 312.05 240.09 302.14 243.26 293.03 247.66 284.43 253.98 276.9 261.9 270.74 270.85 265.32 281.03 261.42 292.04 259.19 303.68 257.56 315.79 257.38 327.99 258.51 340.49 259.54 352.87 261.25 364.8 263.32 376.86 264.26 388.34 264.91 398.94 265.09" stroke-dasharray="7 3" transform="rotate(48.48, 400, 400)" opacity="0.51"></path><path d="M387.02 276.5C396.58 275.16 404.81 273.57 411.7 271.93 421.28 268.49 434.33 265.45 438.66 267.17 441.91 269.36 445.03 273.07 448.46 278.17 453.3 283.91 459.2 290.88 466.53 298.82 475.9 307.21 487.05 316.32 499.86 325.87 514.34 335.64 529.81 345.65 545.42 355.66 560.82 365.74 574.7 375.71 585.86 385.37 594.28 395.02 598.26 403.87 597.8 411.9 594.07 419.94 586.42 427.23 575.67 433.83 562.91 440.61 548.32 446.92 532.83 452.94 517 459.49 501.25 466.11 486.15 472.99 471.68 480.8 458.14 489.19 445.65 498.17 433.92 508.11 423.02 518.52 412.84 529.04 403.12 539.77 393.77 549.83 384.69 558.51 375.74 566 366.84 571.08 357.98 573.16 349.12 572.98 340.7 569.6 332.85 563.52 325.07 555.9 317.98 546.47 311.77 535.94 305.75 525.24 300.77 514.29 296.95 503.57 293.38 493.58 291.01 484.08 289.84 475.16 288.71 467.11 288.57 459.43 289.27 451.97 289.47 445.07 290.05 438.04 290.76 430.74 290.3 423.65 289.49 416.04 288.19 407.81 285.29 399.61 281.74 390.71 277.68 381.12 272.3 371.53 267.13 361.73 262.52 351.91 257.66 342.17 254.04 332.54 251.87 323.25 250.35 314.21 250.65 305.72 252.74 298.05 255.85 290.84 260.71 284.67 267.08 279.77 274.36 275.44 282.87 272.48 292.24 270.94 302.23 269.81 312.77 269.88 323.52 271.03 334.58 271.96 345.61 273.44 356.31 275.19 367.13 275.91 377.46 276.39 387.02 276.5" stroke-dasharray="0 1" transform="rotate(52.52, 400, 400)" opacity="0.54"></path><path d="M376.12 287.91C384.7 286.7 392.2 285.31 398.62 283.91 407.71 280.86 421.52 277.76 427.14 278.83 431.37 280.31 435.73 283.11 440.53 287.14 446.58 291.67 453.62 297.35 461.89 303.96 471.78 310.95 483.07 318.7 495.57 326.95 509.26 335.41 523.55 344.21 537.73 353.13 551.58 362.11 563.99 371.1 574.01 379.94 581.74 388.78 585.66 397.03 585.8 404.65 583.2 412.31 577.17 419.44 568.33 426.1 557.66 432.96 545.14 439.56 531.56 446.03 517.42 452.98 503.03 460.09 488.94 467.47 475.14 475.58 461.96 484.16 449.62 493.14 437.79 502.8 426.7 512.68 416.37 522.45 406.39 532.23 396.92 541.25 387.92 548.91 379.04 555.49 370.45 559.93 362.18 561.75 353.91 561.66 346.3 558.8 339.43 553.55 332.58 546.94 326.54 538.63 321.41 529.19 316.38 519.45 312.35 509.28 309.39 499.09 306.53 489.37 304.7 479.92 303.89 470.89 302.95 462.52 302.81 454.47 303.31 446.68 303.24 439.37 303.43 432.06 303.68 424.65 302.82 417.46 301.65 409.94 300.05 402.05 297.04 394.2 293.49 385.86 289.53 377.06 284.4 368.26 279.49 359.43 275.06 350.72 270.34 342.08 266.67 333.67 264.25 325.71 262.28 317.95 261.88 310.8 263.04 304.48 265 298.52 268.54 293.54 273.46 289.73 279.15 286.33 286.02 284.11 293.78 283.1 302.09 282.31 311.01 282.52 320.25 283.6 329.78 284.38 339.4 285.59 348.82 287.04 358.36 287.53 367.54 287.86 376.12 287.91" stroke-dasharray="2 4" transform="rotate(56.56, 400, 400)" opacity="0.58"></path><path d="M367.11 299.32C374.79 298.23 381.68 297.05 387.76 295.88 396.56 293.25 411.39 290.32 418.27 290.92 423.39 291.88 428.79 293.94 434.69 297.08 441.63 300.57 449.47 305.1 458.29 310.51 468.35 316.23 479.45 322.69 491.39 329.72 504.12 336.91 517.16 344.52 529.89 352.37 542.22 360.27 553.23 368.32 562.15 376.38 569.19 384.43 573.01 392.11 573.62 399.37 571.99 406.68 567.39 413.68 560.3 420.39 551.59 427.29 541.1 434.1 529.46 440.89 517.15 448.08 504.37 455.47 491.58 463.09 478.84 471.26 466.44 479.77 454.63 488.5 443.14 497.66 432.26 506.85 422.08 515.76 412.16 524.54 402.79 532.51 394.01 539.2 385.33 544.92 377.1 548.77 369.37 550.34 361.64 550.33 354.73 547.93 348.65 543.45 342.57 537.8 337.35 530.58 333.04 522.25 328.76 513.54 325.41 504.27 323.02 494.81 320.6 485.59 319.07 476.46 318.38 467.59 317.45 459.18 317.14 451.01 317.32 443.09 316.9 435.56 316.66 428.1 316.43 420.67 315.18 413.43 313.67 406.05 311.81 398.48 308.72 390.97 305.21 383.17 301.38 375.13 296.53 367.09 291.91 359.18 287.71 351.54 283.2 343.94 279.58 336.69 277.01 329.96 274.25 320.41 276.35 305.47 281.15 300.56 285.4 297.89 290.74 296.23 296.96 295.59 303.65 295.01 310.99 295.25 318.73 296.19 326.74 296.77 334.94 297.71 343.1 298.85 351.36 299.14 359.43 299.32 367.11 299.32" stroke-dasharray="3 10" transform="rotate(60.599999999999994, 400, 400)" opacity="0.62"></path><path d="M360.7 310.73C367.56 309.77 373.92 308.77 379.75 307.83 388.36 305.63 404.21 303.04 412.14 303.38 417.96 303.96 424.13 305.47 430.81 307.89 438.3 310.55 446.54 314.12 455.55 318.49 465.44 323.08 476.08 328.4 487.23 334.3 498.88 340.32 510.6 346.83 521.89 353.67 532.76 360.55 542.44 367.7 550.31 375.01 556.66 382.31 560.31 389.44 561.29 396.35 560.45 403.29 557.1 410.11 551.58 416.79 544.67 423.64 536.11 430.52 526.39 437.43 515.97 444.66 504.92 452.08 493.66 459.68 482.26 467.66 470.98 475.84 460.07 484.09 449.3 492.58 438.99 500.95 429.28 508.92 419.73 516.67 410.72 523.62 402.32 529.38 393.99 534.29 386.19 537.58 378.98 538.93 371.78 538.99 365.46 537.01 360.01 533.24 354.54 528.48 349.94 522.3 346.2 515.08 342.43 507.43 339.52 499.16 337.44 490.58 335.24 482.06 333.79 473.48 333.02 465.02 331.95 456.86 331.36 448.84 331.14 441.03 330.33 433.5 329.63 426.07 328.94 418.76 327.34 411.6 325.53 404.42 323.45 397.22 320.34 390.07 316.9 382.82 313.24 375.5 308.7 368.19 304.39 361.15 300.47 354.49 296.22 347.86 292.73 341.67 290.12 336.02 287.01 322 295.2 309.38 302.02 308.3 307.21 307.82 313.08 308 319.41 308.74 325.96 309.11 332.81 309.78 339.77 310.62 346.8 310.73 353.83 310.78 360.7 310.73" stroke-dasharray="6 10" transform="rotate(64.64, 400, 400)" opacity="0.66"></path><path d="M357.39 322.14C366.45 320.89 383.43 317.98 391.58 316.88 397.17 316.02 402.84 315.74 408.68 316.1 414.93 316.46 421.57 317.59 428.65 319.48 436.34 321.49 444.63 324.28 453.47 327.8 462.91 331.46 472.83 335.79 483.02 340.7 493.47 345.7 503.84 351.2 513.71 357.11 523.17 363.05 531.58 369.35 538.46 375.94 544.12 382.53 547.56 389.1 548.8 395.6 548.61 402.15 546.31 408.69 542.17 415.22 536.88 421.88 530.11 428.63 522.22 435.46 513.67 442.5 504.41 449.71 494.8 457.01 484.95 464.56 475.03 472.2 465.28 479.78 455.56 487.45 446.13 494.9 437.16 501.89 428.28 508.61 419.86 514.56 412.01 519.43 404.21 523.6 396.93 526.38 390.25 527.52 383.58 527.63 377.79 526.03 372.84 522.91 367.86 518.97 363.7 513.78 360.33 507.63 356.89 501.06 354.19 493.85 352.21 486.25 350.07 478.6 348.54 470.77 347.55 462.94 346.23 455.27 345.29 447.65 344.63 440.19 343.42 432.91 342.3 425.73 341.17 418.7 339.27 411.79 337.22 404.93 334.98 398.17 331.88 391.45 328.55 384.75 325.09 378.14 320.89 371.53 316.93 365.31 313.33 359.53 307.76 351.14 300.26 337.15 298.84 331.81 301.43 324.67 315.24 320.71 322.58 321.24 330.61 321.58 348.23 322.26 357.39 322.14" stroke-dasharray="4 9" transform="rotate(68.68, 400, 400)" opacity="0.70"></path><path d="M357.45 333.55C368.34 331.51 379.22 330.03 390.07 329.51 401.57 328 414.14 328.64 427.95 331.65 443.43 334.83 460.73 340.67 478.67 348.77 497.04 357.07 513.95 367.33 526.6 379.11 535.53 390.87 537.07 403.11 532.1 415.45 523.46 428.14 510.21 441.43 494.67 454.84 478.04 468.75 460.91 482.47 444.91 494.62 429.02 505.69 414.51 513.44 402.3 516.11 390.08 515.6 380.98 509.67 374.75 499.88 368.16 488.56 363.95 475.1 361.66 461.07 358.12 447.22 355.43 433.36 353.06 420.15 348.18 407.25 342.72 394.64 336.94 382.81 328.77 370.97 321.99 360.92 317.3 353.02 311.68 342.49 317.76 333.31 328.38 333.63 336.64 333.11 346.56 333.16 357.45 333.55" stroke-dasharray="1 0" transform="rotate(72.72, 400, 400)" opacity="0.73"></path><path d="M360.87 344.96C370.49 343.27 380.75 342.24 391.45 342.08 402.63 341.01 415.01 341.67 428.38 344.24 442.8 346.75 458.43 351.49 474.12 358.25 489.84 365.09 504.09 373.82 514.75 384.2 522.62 394.58 524.61 405.7 521.37 417.09 515.33 428.69 505.31 440.83 493.02 452.9 479.66 465.12 465.42 476.92 451.71 487.08 437.97 496.25 425.15 502.56 414.16 504.7 403.16 504.43 394.79 499.74 388.8 491.79 382.47 482.53 378.01 471.21 375.07 459.12 371.03 446.95 367.64 434.53 364.58 422.63 359.54 410.89 354.18 399.52 348.8 389.06 341.51 378.61 335.51 369.96 331.29 363.32 327.25 350.27 347.17 344.89 360.87 344.96" stroke-dasharray="1 9" transform="rotate(76.76, 400, 400)" opacity="0.77"></path><path d="M367.39 356.37C375.78 355.01 385.19 354.36 395.29 354.53 405.72 353.92 417.28 354.7 429.56 357 442.43 359.13 456.01 363.06 469.3 368.73 482.38 374.39 494.1 381.78 502.89 390.77 509.68 399.75 511.91 409.55 510.03 419.66 506.14 429.88 498.93 440.51 489.64 450.9 479.42 461.24 468.11 471.02 456.86 479.24 445.48 486.61 434.56 491.62 424.9 493.29 415.23 493.21 407.58 489.61 401.79 483.35 395.7 476.04 391.02 466.87 387.5 456.83 383.1 446.58 379.21 435.94 375.68 425.61 370.66 415.34 365.55 405.4 360.65 396.33 354.3 387.27 349.13 379.87 345.48 374.23 340.94 362.67 355.66 356.57 367.39 356.37" stroke-dasharray="1 3" transform="rotate(80.80000000000001, 400, 400)" opacity="0.81"></path><path d="M376.48 367.78C383.64 366.72 391.94 366.4 401 366.83 410.24 366.65 420.45 367.59 431.12 369.73 442.05 371.64 453.35 374.99 464.15 379.74 474.66 384.44 484 390.61 491.04 398.18 496.72 405.76 498.97 414.06 498.12 422.63 495.91 431.23 491.06 440.07 484.41 448.58 477.05 456.94 468.54 464.69 459.73 471.07 450.78 476.79 441.89 480.63 433.67 481.88 425.45 481.93 418.61 479.28 413.11 474.54 407.37 469.02 402.62 461.91 398.73 453.95 394.19 445.75 390.06 437.06 386.32 428.5 381.54 419.93 376.84 411.58 372.51 403.94 364.99 393.18 355.54 378.56 354.69 374.51 355.61 371.17 366.6 368.18 376.48 367.78" stroke-dasharray="8 5" transform="rotate(84.84, 400, 400)" opacity="0.85"></path><path d="M387.43 379.19C399.21 376.99 415.44 378 432.67 382.16 450.17 385.56 467.66 393.51 479.19 405.77 487.33 418.02 485.67 432.5 477.29 445.69 467.02 458.28 453.11 467.96 439.78 470.47 426.45 469.99 416.02 461.94 408.54 450.27 399.4 437.77 390.92 423.54 384.36 411.19 372.57 394.65 372.8 380.01 387.43 379.19" stroke-dasharray="10 11" transform="rotate(88.88, 400, 400)" opacity="0.89"></path><path d="M399.37 390.6C408.47 389.16 420.94 390.44 433.83 394.08 446.66 397.2 459.15 403.53 467.33 412.82 473.65 422.1 473.4 432.7 468.33 442.02 462.17 450.87 452.81 457.47 442.75 459.06 432.68 458.98 423.8 453.66 416.81 445.62 408.9 437 401.58 426.74 396.21 417.39 387.49 404.66 388.1 391.77 399.37 390.6" stroke-dasharray="2 8" transform="rotate(92.92, 400, 400)" opacity="0.92"></path><path d="M411.36 402.01C423.85 399.73 444.5 406.18 455.48 418.68 463.22 431.17 455.74 445.21 442.34 447.65 428.92 447.18 415.02 434.54 408.07 421.99 398.21 409.43 398.86 401.58 411.36 402.01" stroke-dasharray="9 11" transform="rotate(96.96, 400, 400)" opacity="0.96"></path></g></svg>